<svg xmlns="http://www.w3.org/2000/svg" viewBox="0 0 500 500"><g id="freepik--Shadow--inject-22"><ellipse cx="138.32" cy="462.36" rx="96.78" ry="9.27" style="fill:#ebebeb"></ellipse></g><g id="freepik--character-1--inject-22"><path d="M84.93,170.57c3.16,1.65,3.77,7.35,13.81,7,1.43,0,2.59-.61,3.91-.13,1.91.71,3.43,2.24,5.14,3.36a11.19,11.19,0,0,0,4.57,1.76,13.67,13.67,0,0,0,9-2.07c1.64-1,3-2.41,4.61-3.51s11.19-3.41,12.8-8.8c1-3.43.87-7.33-3.2-12.34a6.28,6.28,0,0,1-1.84-3.32,7.49,7.49,0,0,1,.75-3.22,6.28,6.28,0,0,0,.58-3.69,8.16,8.16,0,0,0-2.13-3.14c-1.5-1.81-1.22-4.44,0-7.67a9.51,9.51,0,0,0-1-8.3,19.68,19.68,0,0,0-3.47-3.76c-1.83-1.74-2.17-3.36-3-5.81-1.55-4.73-4-6.85-6.87-8.3-2.58-1.31-2.49-.81-5.27-.39a14.52,14.52,0,0,0-9.37-2c-3,.38-5.53,2.42-7.82,4.36-2,1.74-3.91,3.61-4,6.54-.06,1.69.35,3.36.27,5-.1,2.15-1.3,3.51-2.73,4.86a12.67,12.67,0,0,0-4.17,7c-.37,2.29,1.87,5.83-.76,9.22-2.33,3-6.42,6.42-7.49,10.19C73.94,165.16,81.89,169,84.93,170.57Z" style="fill:#263238"></path><path d="M123.77,176.86c4.61-.69,11.69.17,14.14-5a7.88,7.88,0,0,0,2.88-6.59c-.14-2.72-1.73-5.08-3.48-7a17.44,17.44,0,0,1-2.93-3.58,23.46,23.46,0,0,1-.57-3.12,15.7,15.7,0,0,1,1.1-3.91s0-.05,0,0c-1,2.12-1.94,4.48-1,6.84a6.73,6.73,0,0,0,.48,1,18.76,18.76,0,0,0,1.37,3.6c1.52,3,2.9,5.73,2.7,9.24a8.52,8.52,0,0,1-.83,3.38,12.71,12.71,0,0,1-7.12,3.09c-.06,0-.07.12,0,.11a14.47,14.47,0,0,0,6.66-2.42c-2.68,3.83-8.89,3.32-13.39,4.2C123.63,176.73,123.68,176.88,123.77,176.86ZM138.26,171l0-.1a12.9,12.9,0,0,0-.58-8.55c-.73-1.79-1.82-3.4-2.54-5.2-.12-.31-.24-.63-.34-.94,1,1.4,2.42,2.57,3.42,3.94,2.2,3,2.84,6.55.8,9.78A9.87,9.87,0,0,1,138.26,171Z" style="fill:#263238"></path><path d="M75,165c.06.1.2,0,.15-.09-2-3.38-1.4-6.85.16-9.95-.75,4.63.16,9.82,4.4,12.31.07,0,.13-.07.06-.11-4.38-2.63-5-8.62-3.86-13.3a26.63,26.63,0,0,1,3.39-4.45c2-2.16,4.52-4.3,6-7a6.32,6.32,0,0,1-2.48,3.9c-.08.06,0,.19.07.14a6.8,6.8,0,0,0,2.8-4,6.11,6.11,0,0,0,.11-1,9.4,9.4,0,0,0,.73-2.73s0,0,0,0a9.5,9.5,0,0,1-.69,2.44,19.86,19.86,0,0,0-1-4.27c-1.08-4,.94-6.39,3.43-8.54.2-.13.4-.26.61-.38a8.63,8.63,0,0,0,3.32-3.07c.17-.18.34-.36.5-.55,0,0,0,0,0,0s-.27.27-.4.4a5.88,5.88,0,0,0,.41-1.16s0,0,0,0a6.07,6.07,0,0,1-1.13,1.84c-1,.83-2.09,1.59-3.14,2.39-2,1.2-3.93,2.34-4.69,4.73s-.16,4.72,0,7c.28,3.58-1,6.57-4.26,8,0,0-.06.08,0,.06a6.28,6.28,0,0,0,.73-.25,12.64,12.64,0,0,0-4.41,5.78C73.53,156.65,72.57,161.19,75,165Zm8.35-20.14-1.1.85a6.72,6.72,0,0,0,1.2-2.06c.9-2.54.15-5.3.09-7.91A6.81,6.81,0,0,1,86,129.93a7.86,7.86,0,0,0-1.64,2.89c-.57,1.93,0,3.72.58,5.57a9.08,9.08,0,0,1,.43,3.62A16.41,16.41,0,0,1,83.35,144.84Zm-6.74,7a16.17,16.17,0,0,1,4.6-5.21l.38-.32c.52-.42,1-.84,1.54-1.27C81,147.45,78.41,149.54,76.61,151.88Z" style="fill:#263238"></path><path d="M81.54,167.94s0,0,0,0S81.52,167.94,81.54,167.94Z" style="fill:#263238"></path><path d="M127.86,122.08a62.75,62.75,0,0,1,4.9,4.75,6.32,6.32,0,0,1,1.82,4.07,6.78,6.78,0,0,1-1.38,4.29c-.35.52-.69,1.05-1,1.59a6.56,6.56,0,0,0,.46,2.93c.75,1.77,2.42,2.86,3.2,4.65,1.25,2.9-.14,5.28-1.36,7.88,0,0,0,0,0,0,.88-2.12,2.12-4.22,1.44-6.62-.56-2-2-3-3.08-4.63a6.52,6.52,0,0,1-1.06-3.4c-1,2-1.3,4,.4,6.06.08.1,0,.23-.12.14-2.16-2.19-1.59-4.84-.27-7.15a12.92,12.92,0,0,1,.89-4c.06-.13.25,0,.22.1-.19,1-.44,2-.58,3l.22-.33c1.73-2.46,2.39-5.32.42-8-1.48-2-3.5-3.51-5.15-5.32A.05.05,0,0,1,127.86,122.08Z" style="fill:#263238"></path><path d="M184.85,465c-2.29.72-69.27-.73-71.71-2.36-.94-.61,4.79-64.05,4.79-64.05l42.48.81-4.83,42.44s24.71,11.71,27.22,13.79S187.15,464.28,184.85,465Z" style="fill: rgb(247, 169, 160);"></path><path d="M184.85,465c-2.29.71-69.27-.73-71.71-2.37-.3-.18-.39-6.62.68-15,12.14,2,55.5,8.69,58.87,6.7,2.35-1.38.27-3.54-1.66-5,5.54,2.76,10.7,5.42,11.77,6.31C185.28,457.69,187.14,464.28,184.85,465Z" style="fill:#263238"></path><path d="M156.78,431.66l-41.7-.59s8.26-99.88,7.91-101.8c-.43-2.46-30-118.47-30-118.47h39.8s31.38,108.13,32.51,118.55C167.1,346.17,156.78,431.66,156.78,431.66Z" style="fill:#37474f"></path><path d="M118.83,421.65c2.46-.17,5-.14,7.42-.18s4.95,0,7.42,0c5,.05,9.89.12,14.83.26,1.36,0,2.71.08,4.06.14s2.89.32,4.33.37c.11,0,.11.18,0,.18-1.22,0-2.43.19-3.65.22s-2.52.05-3.78.05c-2.47,0-5,0-7.42,0-4.94,0-9.89-.11-14.83-.31-2.79-.12-5.61-.15-8.39-.43A.13.13,0,0,1,118.83,421.65Z" style="fill:#263238"></path><path d="M101.72,220.17c3.56,12.61,6.82,25.33,10,38s6.37,25.44,9.54,38.16L126,315.46c1.54,6.19,3.33,12.42,3.72,18.82s-.44,13.06-1,19.54-1.1,13-1.67,19.53c-1.14,13-2.23,26.06-3.65,39.06-.18,1.63-.35,3.26-.52,4.88,0,.14-.23.14-.22,0,.87-13,1.77-26.06,2.81-39.08q.78-9.76,1.59-19.54c.53-6.5,1.29-13,1.49-19.54s-1-12.88-2.58-19.23-3.12-12.45-4.68-18.68q-4.77-19.07-9.53-38.16c-3.53-14.24-7.06-28.52-10.18-42.86A.06.06,0,0,1,101.72,220.17Z" style="fill:#263238"></path><path d="M93,210.8s12.69,49.77,21.57,84.81l16.94-84.81Z" style="fill:#263238"></path><path d="M134.84,465.14c-2.3.72-69.27-.73-71.72-2.36-.94-.6,2.56-64.08,2.56-64.08l41.91.81-2,42.48s24.72,11.7,27.22,13.78S137.13,464.44,134.84,465.14Z" style="fill: rgb(247, 169, 160);"></path><path d="M134.84,465.14c-2.29.72-69.28-.73-71.72-2.36-.3-.19-.23-6.46,0-15,12.14,2,56.17,8.7,59.54,6.71,2.36-1.38.27-3.55-1.65-5,5.53,2.76,10.69,5.41,11.76,6.3C135.26,457.84,137.13,464.44,134.84,465.14Z" style="fill:#263238"></path><path d="M131.48,210.79s-1.16,19-5.7,34.05c-.37,1.24-.76,2.47-1.19,3.64a70.78,70.78,0,0,0-11.54,5.75s-2.87,72.79-2.82,77.31c.19,16.91-4.13,99.28-4.13,99.28l-42-.4s4.36-93.15,4.38-99.34c0-6,2.86-43.79,5.39-76.56,0,0-3.74-10.47-3.32-15.75,1-12.82,6.75-28,6.75-28Z" style="fill:#37474f"></path><path d="M122.3,236.35c.15-1.06.31-2.11.47-3.16.3-1.93.69-3.85,1-5.77.77-4.36,1.57-8.74,2.54-13.06,0-.1.2-.08.19,0-.18,1.75-.38,3.49-.62,5.22s-.42,3.49-.67,5.23c-.48,3.44-1,6.89-1.55,10.32-.23,1.32-1,3.69.85,4.1,1.51.33,2.61-1.15,3.06-2.39a29.63,29.63,0,0,0,1-4.76c.31-1.74.58-3.49.83-5.23q.81-5.72,1.75-11.41c0-.1.19-.07.18,0a113.64,113.64,0,0,1-.84,11.66q-.36,2.79-.84,5.55a19.47,19.47,0,0,1-1.27,5.17,4.2,4.2,0,0,1-3.15,2.52h-.09a.11.11,0,0,1,.06.11c0,.61,0,1.24-.07,1.85s-.19,1.22-.31,1.82a11.19,11.19,0,0,1-.47,1.81,7.71,7.71,0,0,1-.33.84c-.14.28-.33.5-.49.76a.11.11,0,0,1-.21-.06h0c0-.1,0-.2,0-.3v-.06h0a4.89,4.89,0,0,1,0-.54c0-.3.12-.59.18-.88.13-.59.29-1.17.45-1.75s.28-1.17.43-1.75.35-1.19.49-1.79a.13.13,0,0,1,0-.06,2.73,2.73,0,0,1-2.65-1.66A4.69,4.69,0,0,1,122.3,236.35Z" style="fill:#263238"></path><path d="M109.65,255.68a32.5,32.5,0,0,1,3.95-2.61,41,41,0,0,1,4.51-2.34c3-1.32,6.18-2.22,9.32-3.26.09,0,.16.13.06.16-3,1.21-5.95,2.82-8.89,4.26-1.44.7-2.91,1.38-4.38,2s-2.94,1.41-4.46,2C109.65,255.93,109.56,255.75,109.65,255.68Z" style="fill:#263238"></path><path d="M85.91,229.17a25.62,25.62,0,0,0,6.34-.86c1-.24,1.9-.55,2.83-.85a7.45,7.45,0,0,0,2.56-1.29c1.44-1.24,2.11-3.2,2.74-4.93a48,48,0,0,0,1.66-6c0-.1.17-.07.17,0a23.34,23.34,0,0,1-.86,6.8c-.52,1.88-1.21,4-2.73,5.3a10.74,10.74,0,0,1-5.81,2.12,26.64,26.64,0,0,1-6.91-.1A.11.11,0,0,1,85.91,229.17Z" style="fill:#263238"></path><path d="M65.91,422.27c2.46-.18,5-.15,7.42-.18s5,0,7.42,0q7.43.06,14.84.26c1.35,0,2.7.08,4,.14s2.89.31,4.33.37a.09.09,0,1,1,0,.17c-1.21,0-2.43.2-3.65.23s-2.52.05-3.78.05l-7.42,0c-4.94,0-9.89-.11-14.83-.32-2.79-.11-5.61-.15-8.39-.42A.13.13,0,0,1,65.91,422.27Z" style="fill:#263238"></path><path d="M71,416.8h0a.5.5,0,0,1-.48-.53l9.49-163c-.12-.71-2.8-9.82-3-14.47-.25-4.91,4.84-24.07,5-24.89a.52.52,0,0,1,.63-.36.51.51,0,0,1,.36.63c0,.19-5.26,19.81-5,24.57s3,14.33,3,14.41-9.49,163.16-9.49,163.16A.52.52,0,0,1,71,416.8Z" style="fill:#263238"></path><path d="M118.48,154C139,172.05,158,191.89,159.63,202.11c2.2,14.14-6.47,18.17-10.37,18.25-10.63.22-30.43-42.64-37.33-59C105.23,145.45,114,150,118.48,154Z" style="fill:#0D0F10"></path><path d="M132.53,210.79l-2.86-18s7.11-7.37,3.44-15.08c-1.86-3.91-14.51-23-21.26-27.76-6.33-4.49-13.84-.76-16.66,4.1-7.09,12.27-13.84,26.37-17.94,56.73Z" style="fill:#0D0F10"></path><path d="M121.23,190.49a58.46,58.46,0,0,0-8.51,1.57c-1.39.39-2.74.83-4.1,1.31-.67.24-1.35.45-2,.66a9.09,9.09,0,0,1-2.19.46.05.05,0,0,0,0,.1,14.89,14.89,0,0,0,2.11-.08,13.93,13.93,0,0,0,2-.42c1.41-.37,2.79-.82,4.2-1.21,2.83-.78,5.66-1.57,8.54-2.15A.12.12,0,0,0,121.23,190.49Z" style="fill:#263238"></path><path d="M128.4,192.9a61,61,0,0,0-7.15-.2c-1.19,0-2.37.14-3.56.28l-1.69.22c-.62.1-1.23.27-1.85.35-.06,0-.06.11,0,.11.59-.06,1.19,0,1.78,0l1.78-.09,3.57-.15c2.37-.13,4.74-.23,7.12-.28A.1.1,0,0,0,128.4,192.9Z" style="fill:#263238"></path><path d="M94.47,152.21c-19.09,15-37.86,40.93-38,55.42-.13,14.31,4.85,12.93,6.27,12.83,8.64-.56,29-40.39,35.2-56.63S99.19,148.5,94.47,152.21Z" style="fill:#0D0F10"></path><path d="M74.23,209.28c1-1.8,2-3.58,3-5.4l3-5.42c2-3.61,4-7.22,5.87-10.87s3.87-7.26,5.76-10.92q1.43-2.74,2.77-5.52c.93-1.84,1.78-3.71,2.65-5.58A112.83,112.83,0,0,1,92.53,177c-1.75,3.74-3.66,7.4-5.57,11.05s-4,7.24-6.08,10.78S76.6,205.9,74.23,209.28Z" style="fill:#263238"></path><path d="M95.24,170.37a16.52,16.52,0,0,1,1.18-1.87c.22-.3.42-.6.65-.88a11.11,11.11,0,0,1,.7-.87,5.71,5.71,0,0,1-.94,2A6.16,6.16,0,0,1,95.24,170.37Z" style="fill:#263238"></path><path d="M153.65,181.15c-1-6.71-3-16.08-5.44-18s-11.79-8.83-14.44-9.72-14.51-5.25-16.67-4c-1.72,1,.39,5.56,6,7.69a82.45,82.45,0,0,1,8.93,4.23c1.45.6,5,5.23,4,7.3-.54,1.22-4.07,2.69-6.28,1.72s-2.8-5.32-5.33-7.35-7-1.73-7.21-.53,1.23,1.75,3.54,5.79c1.49,2.6,1.65,8.88,5,13.34a76.76,76.76,0,0,1,4.65,8.23Z" style="fill: rgb(247, 169, 160);"></path><path d="M122.12,161.2a4.38,4.38,0,0,1-2.21-1,1.9,1.9,0,0,1-.51-.89,2.1,2.1,0,0,1,0-.56.86.86,0,0,1,.21-.54s0-.09,0,0a2.69,2.69,0,0,1-.2.27,1.19,1.19,0,0,0-.13.25,1.71,1.71,0,0,0-.09.55,1.87,1.87,0,0,0,.46,1.12,3,3,0,0,0,2.53.88S122.16,161.21,122.12,161.2Z" style="fill:#263238"></path><path d="M148.21,163.13c-2.17-3.34-7.71-9.33-13.15-11.36-3.68-1.36-16.23,4.91-15.83,7.32s2.54,2.39,5.73,2c1.16-.15,7.28-2.43,8.34-1.15,1.53,1.84,3.51,8.15,3.51,8.15Z" style="fill: rgb(247, 169, 160);"></path><path d="M119.53,158.14c1.53-2.59,4.94-4,8.34-5.13,0,0,.08.06,0,.08-.87.29-6.39,2.9-8.33,5.09C119.55,158.21,119.51,158.17,119.53,158.14Z" style="fill:#263238"></path><path d="M148.21,163.13c-2.17-3.34-7.71-9.33-13.15-11.36-3.68-1.36-13.57,6.6-13.18,9s3.49,2.56,6.9,1.34c1.1-.4,4.78-3.05,5.84-1.77,1.52,1.84,5.24,6.4,5.24,6.4Z" style="fill: rgb(247, 169, 160);"></path><path d="M137.71,163.92c-.34-.52-.46-.71-.82-1.23s-.73-1-1.12-1.52a4.74,4.74,0,0,0-1.14-1.18,2.36,2.36,0,0,0-1.52-.28,8.54,8.54,0,0,0-3.25,1.47,10.15,10.15,0,0,1-5.22,1.56,3.64,3.64,0,0,1-1.41-.37,2.25,2.25,0,0,1-.85-.66c-.79-1.31.16-2.82,1.14-3.89a22.57,22.57,0,0,1,6.68-4.66l1.77-.86a5.41,5.41,0,0,1,2.16-.64c1.24,0,3.28,1.22,3.92,1.59,0,0,.08-.05,0-.08-.76-.46-2.67-2-4.67-1.87a6.25,6.25,0,0,0-2.07.73c-.7.3-1.38.64-2.06,1a28.77,28.77,0,0,0-3.79,2.3,11.64,11.64,0,0,0-3.08,3,3.47,3.47,0,0,0-.18,3.57,3,3,0,0,0,2.26,1.17,6,6,0,0,0,1.58,0,24.7,24.7,0,0,0,3.41-1c1.08-.44,2.05-1.18,3.17-1.53a2.07,2.07,0,0,1,1.62.09,5.71,5.71,0,0,1,1.22,1.09,17,17,0,0,1,2,2.37C137.7,164.22,137.86,164.14,137.71,163.92Z" style="fill:#263238"></path><path d="M149.83,166c-.8-1.59-2.2-8.16-3.49-10.16s-7.17-8.93-9.87-8.6c-3.4.41.21,6.51,2,9s1.55,6.81,1.55,6.81Z" style="fill: rgb(247, 169, 160);"></path><path d="M136,152.14a30.09,30.09,0,0,1,1.77,2.53,20.68,20.68,0,0,1,1.55,2.49A8.66,8.66,0,0,1,140,160c.05.48.07,1,.08,1.43s0,1,0,1.56c0,.05-.09.06-.09,0a22.78,22.78,0,0,0-.4-2.82,12.14,12.14,0,0,0-.88-2.8c-.82-1.77-2-3.35-2.83-5.12C135.81,152.13,135.91,152.08,136,152.14Z" style="fill:#263238"></path><path d="M140,163.83a9.83,9.83,0,0,1-.82,4.8,18.86,18.86,0,0,1-1.07,2.22,21.16,21.16,0,0,1-1.39,2,16.82,16.82,0,0,0-3.69,8.58,12.47,12.47,0,0,1,.55-4.84,14.62,14.62,0,0,1,2.34-4.33,22.75,22.75,0,0,0,2.51-4A14.34,14.34,0,0,0,140,163.83Z" style="fill:#263238"></path><path d="M148.27,219.87c-6.64-.9-11-12-18.56-31.52-1.33-3.43,16-24.49,18.38-21.35,3,4,11,26,11.81,32C161.56,210.86,156,220.91,148.27,219.87Z" style="fill: rgb(247, 169, 160);"></path><path d="M133.72,199.24l21.39-20.79s6.08,17.89,5.51,25.39-3.18,16-12.21,16.52C141.65,220.71,133.72,199.24,133.72,199.24Z" style="fill:#0D0F10"></path><path d="M140.63,213.63c-.77-1.09-1.46-2.24-2.13-3.39s-1.29-2.34-1.9-3.53-1.15-2.4-1.65-3.65a23,23,0,0,1-1.23-3.82c.56,1.21,1.16,2.4,1.76,3.58l1.8,3.56c.58,1.19,1.17,2.38,1.73,3.59S140.13,212.39,140.63,213.63Z" style="fill:#263238"></path><path d="M138.32,202.87c1-1.14,2.18-2.2,3.28-3.28s2.22-2.14,3.35-3.19q3.39-3.17,6.82-6.26c.63-.56,1.26-1.13,1.9-1.68s1.44-1.1,2.11-1.69a.06.06,0,0,1,.08.08c-.55.52-1,1.13-1.56,1.67s-1.12,1.1-1.69,1.64l-3.36,3.18c-2.26,2.1-4.52,4.2-6.84,6.23-1.31,1.15-2.6,2.34-4,3.41A.08.08,0,0,1,138.32,202.87Z" style="fill:#263238"></path><path d="M99.24,149.91s3.88,9.87,5.16,11,12.17.5,12.41-.4-4.59-9.88-4.59-9.88a22.63,22.63,0,0,0-7.56-2.09A8.4,8.4,0,0,0,99.24,149.91Z" style="fill: rgb(247, 169, 160);"></path><path d="M100.15,150.56c.16,1.1,4.67,8.6,10.64,8.23,3.48-.21,1.11-7.14,1.11-7.14l3-9.47-11.46-8.76S100.09,150.1,100.15,150.56Z" style="fill: rgb(247, 169, 160);"></path><path d="M102.22,139.65a19,19,0,0,0,9.85,11.48l2.84-8.95-11.46-8.76S102.89,136.24,102.22,139.65Z" style="fill:#263238"></path><path d="M128.41,128.87c.34,16.28-9.37,18.32-12.88,18.39-3.19.07-14-.13-16.07-16.29s5.44-21.46,12.72-22S128.07,112.58,128.41,128.87Z" style="fill: rgb(247, 169, 160);"></path><path d="M124.59,127.56a11,11,0,0,1-1.08-.31,1.8,1.8,0,0,1-1-.53.59.59,0,0,1,.06-.71,1.44,1.44,0,0,1,1.43-.23,2.12,2.12,0,0,1,1.27.85A.62.62,0,0,1,124.59,127.56Z" style="fill:#263238"></path><path d="M113.44,127.06a8.45,8.45,0,0,0,1.11-.15,1.81,1.81,0,0,0,1.11-.37.57.57,0,0,0,0-.7,1.43,1.43,0,0,0-1.39-.44A2.1,2.1,0,0,0,113,126,.62.62,0,0,0,113.44,127.06Z" style="fill:#263238"></path><path d="M115.46,131.34s-.09,0-.09.09c0,1.11-.24,2.38-1.26,2.7a0,0,0,0,0,0,.06C115.35,134.08,115.61,132.4,115.46,131.34Z" style="fill:#263238"></path><path d="M114.53,130.13c-1.78-.22-2.1,3.34-.46,3.55S116,130.32,114.53,130.13Z" style="fill:#263238"></path><path d="M113.81,130.26c-.33.17-.67.5-1,.5s-.73-.4-1-.78c0,0-.06,0-.07,0-.07.68.13,1.4.85,1.57s1.2-.41,1.43-1.08C114,130.39,113.94,130.19,113.81,130.26Z" style="fill:#263238"></path><path d="M122.15,131.45s.08.06.08.11c-.15,1.1-.13,2.38.84,2.85,0,0,0,.07,0,.06C121.85,134.18,121.84,132.47,122.15,131.45Z" style="fill:#263238"></path><path d="M123.25,130.4c1.79,0,1.58,3.61-.08,3.57S121.75,130.36,123.25,130.4Z" style="fill:#263238"></path><path d="M124,130.68c.27.2.53.56.87.6s.7-.32,1-.67c0,0,.06,0,.05,0,0,.68-.28,1.38-1,1.47s-1-.52-1.13-1.21C123.76,130.78,123.87,130.59,124,130.68Z" style="fill:#263238"></path><path d="M115.44,139.86c.23.29.44.68.84.77a2.93,2.93,0,0,0,1.21-.12,0,0,0,0,1,0,.07,1.48,1.48,0,0,1-1.47.4,1.17,1.17,0,0,1-.73-1.09C115.32,139.83,115.41,139.81,115.44,139.86Z" style="fill:#263238"></path><path d="M120.38,136.22s.09,1.67,0,2.45c0,.07-.19.09-.46.09,0,0,0,0,0,0a3.74,3.74,0,0,1-3.49-1.67c-.05-.08.06-.15.13-.1a5.56,5.56,0,0,0,3.3,1.24c.07-.21-.26-2.86-.14-2.86a7.19,7.19,0,0,1,1.74.54c-.11-3.48-.77-6.92-.82-10.39a.11.11,0,0,1,.21,0,57,57,0,0,1,1.36,11.15C122.23,137.09,120.68,136.38,120.38,136.22Z" style="fill:#263238"></path><path d="M119.46,138.3a4,4,0,0,1-1.64,1.18,1.79,1.79,0,0,1-1.1,0c-.78-.23-.78-1-.61-1.58a4.52,4.52,0,0,1,.39-.93A5.16,5.16,0,0,0,119.46,138.3Z" style="fill:#263238"></path><path d="M117.82,139.48a1.79,1.79,0,0,1-1.1,0c-.78-.23-.78-1-.61-1.58A1.88,1.88,0,0,1,117.82,139.48Z" style="fill:#ff9abb"></path><path d="M99.33,131.26c1.8,0,6.76-4.72,7.36-13.41,0,0-1.08,7.77-1.73,8.88s2.77-2.65,3.36-9.65a28.43,28.43,0,0,0,7,4.12c3.26,1.1,5.29,1.18,5.54,1s-4.55-2-5.78-3.61c0,0,8.59,4.57,12.63,5.1.47.06,1.55-9.57-4.51-14s-16.24-.54-19,1.9c0,0-3.17.28-6.83,4.74S97.38,131.27,99.33,131.26Z" style="fill:#263238"></path><path d="M108.55,116.19c0-.2-.32-.2-.31,0a22.76,22.76,0,0,1-1.79,9.27s.06.07.08,0C108,122.49,109,119.56,108.55,116.19Z" style="fill:#263238"></path><path d="M119.57,122.61c-4.69-.81-8.67-2.51-11.63-6.36-.06-.08-.2,0-.14.08,2.38,4.16,7.15,6.07,11.75,6.46C119.64,122.8,119.67,122.63,119.57,122.61Z" style="fill:#263238"></path><path d="M102.22,131.06s-3.21-5.31-5.6-4.19-.2,8.64,2.44,9.82a2.75,2.75,0,0,0,3.78-1.23Z" style="fill: rgb(247, 169, 160);"></path><path d="M97.3,129s0,.05,0,.07c1.85.89,2.73,2.71,3.31,4.58a1.52,1.52,0,0,0-2.25-.56s0,.11,0,.1a1.7,1.7,0,0,1,1.82.71,8.25,8.25,0,0,1,.79,1.57c.08.17.39.1.34-.1v0C101.53,132.93,99.88,129.42,97.3,129Z" style="fill:#263238"></path><path d="M116.34,158.21l-9,27.93c-.36.81,0,1.52.83,1.57l14.65,1a2.36,2.36,0,0,0,2.13-1.38l9-27.92a1,1,0,0,0-.84-1.58l-14.65-1A2.39,2.39,0,0,0,116.34,158.21Z" style="fill:#37474f"></path><path d="M118.08,158.31l-9,27.93c-.36.81,0,1.52.83,1.57l14.65,1a2.38,2.38,0,0,0,2.13-1.38l9-27.93a1,1,0,0,0-.83-1.57l-14.66-1A2.39,2.39,0,0,0,118.08,158.31Z" style="fill:#455a64"></path><path d="M122,159.87a1.24,1.24,0,1,1-1.13-1.35A1.24,1.24,0,0,1,122,159.87Z" style="fill:#263238"></path><path d="M60.75,220.43c6.4.88,14.37-4.09,35.05-19.19,2.87-2.08-6.44-26.25-9.62-24.17-4,2.61-18.92,13.61-19.91,14.55C57.92,199.57,56.41,219.84,60.75,220.43Z" style="fill: rgb(247, 169, 160);"></path><path d="M78.8,184.38s5.89-8.27,10.33-11.65A35.81,35.81,0,0,1,105,166.29c6.19-.91,21.81,1.17,22,5.77.16,4.17-15.69,1.24-15.69,1.24s16.66.32,15.94,5.37-18.93.6-18.93.6,17.11.72,15.54,5.81c-1.18,3.85-17.91.75-17.91.75s14.71.72,13.66,4.73c-1.16,4.43-16.77,2.54-16.77,2.54-4.38,9.74-10.66,12.49-15.22,14C86.56,207.47,78.8,184.38,78.8,184.38Z" style="fill: rgb(247, 169, 160);"></path><path d="M105.59,172.82c2,0,3.94-.08,5.9.06s3.91.35,5.84.67a33.69,33.69,0,0,1,7.4,2c-4.35-1.35-11.34-2-13.3-2.11s-3.89-.38-5.84-.52C105.54,172.89,105.55,172.82,105.59,172.82Z" style="fill:#263238"></path><path d="M105,179.86c2.5.07,5,0,7.49.22s4.83.56,7.3.91c.19,0,.11.12-.08.1-2.48-.25-4.79-.29-7.28-.51s-5-.53-7.44-.66C104.91,179.92,104.92,179.86,105,179.86Z" style="fill:#263238"></path><path d="M103.32,185.81A56.38,56.38,0,0,1,114.75,187c.19,0,.07.15-.12.12-3.79-.47-6.76-.87-11.31-1.19C103.25,185.94,103.24,185.82,103.32,185.81Z" style="fill:#263238"></path><path d="M78.8,181.09,87,210.79s-21.87,12.87-26.7,9.46-1.67-20.55,3.8-27.09C66.33,190.44,78.8,181.09,78.8,181.09Z" style="fill:#0D0F10"></path><path d="M79.07,182.08l-.32-1,.08,0c-2.07,1.69-4.14,3.36-6.18,5.06s-4.09,3.4-6,5.2a30.59,30.59,0,0,0-2.78,2.8,23.18,23.18,0,0,0-2.2,3.25A25.22,25.22,0,0,0,59,204.9a21,21,0,0,1,2.14-7.72,19.22,19.22,0,0,1,2.18-3.42,29.76,29.76,0,0,1,2.8-2.92c2-1.8,4-3.48,6.16-5.12s4.28-3.19,6.5-4.67l.06,0,0,.07Z" style="fill:#263238"></path><path d="M74,188.46c.5,1.46.87,3,1.29,4.45s.81,3,1.19,4.47c.75,3,1.49,6,2.2,9,.19.82.38,1.65.56,2.47s.27,1.79.46,2.67a.05.05,0,1,1-.1,0c-.2-.73-.51-1.44-.72-2.16s-.43-1.52-.63-2.28c-.39-1.49-.78-3-1.16-4.48-.76-3-1.51-6-2.17-9-.38-1.71-.8-3.41-1.08-5.13A.08.08,0,0,1,74,188.46Z" style="fill:#263238"></path><path d="M87,210.79c.14.28.13,0,.1-.13s-.37-1.61-.68-2.51c0-.09-.17-.25-.12.07A24.12,24.12,0,0,0,87,210.79Z" style="fill:#263238"></path></g></svg>