<svg width="500" height="500" viewBox="0 0 500 500" fill="none" xmlns="http://www.w3.org/2000/svg">
<path d="M195.57 413.56H156.49V424.32H195.57V413.56Z" fill="#EBEBEB"/>
<path d="M179 434.79C178.997 434.727 178.997 434.663 179 434.6V434.07C179 433.58 179 432.91 179 432.07C179 430.28 179 427.72 178.93 424.48L179.05 424.6L139.97 424.68L140.17 424.48V434.8L139.97 434.6L167.82 434.69L176.04 434.75H178.26H178.84C178.91 434.739 178.98 434.739 179.05 434.75H178.31H176.13L167.96 434.8L140 435H139.81V434.81C139.81 433.15 139.81 431.45 139.81 429.72V424.49L140.01 424.29L179.09 424.37H179.21V424.49C179.21 427.76 179.21 430.35 179.14 432.15C179.14 433.01 179.14 433.68 179.14 434.15C179.14 434.35 179.14 434.52 179.14 434.65C179.098 434.701 179.051 434.748 179 434.79Z" fill="#E0E0E0"/>
<path d="M192.67 308.25C192.67 308.25 192.67 308.18 192.67 308.05V307.49C192.67 306.98 192.67 306.26 192.67 305.34C192.67 303.45 192.67 300.73 192.61 297.34L192.71 297.47L160.53 297.55C160.6 297.46 160.36 297.76 160.69 297.34V302.88C160.69 304.71 160.69 306.5 160.69 308.26L160.53 308.06L183.47 308.15L190.24 308.21H192.08H192.72C192.72 308.21 192.72 308.21 192.57 308.21H192.12H190.32L183.59 308.27L160.53 308.36H160.37V297.33C160.7 296.91 160.46 297.21 160.54 297.12L192.72 297.2H192.82V297.33C192.82 300.79 192.82 303.53 192.77 305.44C192.77 306.34 192.77 307.05 192.77 307.56C192.77 307.78 192.77 307.96 192.77 308.1C192.77 308.24 192.68 308.26 192.67 308.25Z" fill="#E0E0E0"/>
<path d="M450.88 442.2C450.876 442.133 450.876 442.067 450.88 442V441.44C450.88 440.92 450.88 440.21 450.88 439.28C450.88 437.4 450.88 434.68 450.81 431.28L450.94 431.4L409.58 431.49L409.79 431.28V436.84C409.79 438.66 409.79 440.46 409.79 442.22L409.59 442.01L439.06 442.11L447.76 442.16H450.12H450.73H450.14H447.83L439.18 442.22L409.56 442.31H409.35V431.26L409.56 431.05L450.92 431.13H451V431.26C451 434.71 450.94 437.45 450.93 439.36C450.93 440.267 450.93 440.977 450.93 441.49V442.02C450.918 442.081 450.901 442.141 450.88 442.2V442.2Z" fill="#E0E0E0"/>
<path d="M456.49 431.26C456.483 431.19 456.483 431.12 456.49 431.05C456.49 430.89 456.49 430.7 456.49 430.47C456.49 429.93 456.49 429.2 456.49 428.27C456.49 426.35 456.44 423.65 456.41 420.27L456.56 420.42L431.71 420.48L431.92 420.27V423.1C431.92 424.05 431.92 424.97 431.92 425.89V431.2L431.72 431L449.49 431.09L454.67 431.15H456.07H456.57H456.12H454.76L449.63 431.2L431.72 431.3H431.52V423C431.52 422.53 431.52 422.06 431.52 421.59V420.17C431.52 420.22 431.92 419.77 431.74 419.96L456.59 420.02H456.74V420.17C456.74 423.54 456.68 426.29 456.66 428.23C456.66 429.14 456.66 429.86 456.66 430.39C456.624 430.684 456.567 430.974 456.49 431.26V431.26Z" fill="#E0E0E0"/>
<path d="M430.6 214.32H391.52V225.08H430.6V214.32Z" fill="#EBEBEB"/>
<path d="M414.08 235.55C414.072 235.487 414.072 235.423 414.08 235.36V234.83C414.08 234.35 414.08 233.67 414.08 232.83C414.08 231.04 414.08 228.48 414.02 225.24L414.14 225.36L375.06 225.44L375.26 225.24V230.48C375.26 232.2 375.26 233.9 375.26 235.56L375.07 235.37L402.92 235.45L411.14 235.51H413.36H413.97H413.41H411.23L403.05 235.57L375.05 235.65H374.85V225.23L375.05 225.03L414.13 225.11H414.25V225.23C414.25 228.5 414.2 231.09 414.18 232.89C414.18 233.75 414.18 234.417 414.18 234.89C414.18 235.1 414.18 235.26 414.18 235.4C414.152 235.453 414.118 235.503 414.08 235.55V235.55Z" fill="#E0E0E0"/>
<path d="M452.83 149.94C452.83 149.94 452.83 149.87 452.83 149.74C452.83 149.61 452.83 149.41 452.83 149.18C452.83 148.66 452.83 147.95 452.83 147.02C452.83 145.14 452.83 142.42 452.76 139.02L452.88 139.14L411.52 139.23L411.73 139.02V149.96L411.52 149.75L441 149.85H449.7H452.05H452.67H452.1H449.79L441.14 149.91L411.52 150H411.31V139L411.52 138.78L452.88 138.87H453V139C453 142.45 453 145.19 452.93 147.1C452.93 148.007 452.93 148.717 452.93 149.23C452.93 149.45 452.93 149.62 452.93 149.76C452.93 149.9 452.84 149.94 452.83 149.94Z" fill="#E0E0E0"/>
<path d="M458.44 139C458.44 139 458.44 138.92 458.44 138.79C458.44 138.66 458.44 138.44 458.44 138.21C458.44 137.67 458.44 136.94 458.44 136.01C458.44 134.09 458.39 131.39 458.36 128.01L458.51 128.16L433.66 128.22L433.87 128.01V133.63C433.87 135.46 433.87 137.24 433.87 138.94L433.67 138.74L451.45 138.83L456.63 138.89H458.02H458.52H458.07H456.72H451.58L433.67 138.99H433.47V139C433.47 137.3 433.47 135.52 433.47 133.69V128.07L433.68 127.86L458.53 127.92H458.68V128.07C458.68 131.44 458.62 134.18 458.6 136.13C458.6 137.04 458.6 137.76 458.6 138.29C458.56 138.53 458.507 138.767 458.44 139V139Z" fill="#E0E0E0"/>
<path d="M444.75 302.56C444.75 302.56 444.75 302.49 444.75 302.36C444.75 302.23 444.75 302.03 444.75 301.8C444.75 301.29 444.75 300.57 444.75 299.65C444.75 297.76 444.75 295.04 444.69 291.65L444.79 291.78L412.61 291.86C412.68 291.77 412.44 292.07 412.77 291.65V297.19C412.77 299.02 412.77 300.81 412.77 302.57L412.61 302.37L435.55 302.46L442.32 302.52H444.15H444.8C444.8 302.52 444.8 302.52 444.65 302.52H444.19H442.4L435.66 302.58L412.61 302.67H412.45V291.64C412.78 291.22 412.54 291.52 412.62 291.43L444.8 291.51H444.9V291.64C444.9 295.1 444.9 297.84 444.85 299.75C444.85 300.65 444.85 301.36 444.85 301.87V302.41C444.76 302.51 444.76 302.57 444.75 302.56Z" fill="#E0E0E0"/>
<path d="M337.08 61.92H241.35V220.38H337.08V61.92Z" fill="#E0E0E0"/>
<path d="M333.89 61.92H238.16V220.38H333.89V61.92Z" fill="#EBEBEB"/>
<path d="M329.82 65.13H242.24V217.16H329.82V65.13Z" fill="white"/>
<path d="M312.76 84.89H258.91V197.41H312.76V84.89Z" fill="#EBEBEB"/>
<path d="M258.91 157.59C258.79 147.08 268.24 136.82 278.65 135.35C283.65 134.65 288.88 135.64 293.52 133.73C301.8 130.34 304.43 119.34 312.76 116.08L313.14 197.41H258.91V157.59Z" fill="#E0E0E0"/>
<path d="M67.5902 88.48H31.4502V148.44H67.5902V88.48Z" fill="#F5F5F5"/>
<path d="M108.03 88.48H68.98V148.44H108.03V88.48Z" fill="#F5F5F5"/>
<path d="M108.03 152.63H68.98V210.57H108.03V152.63Z" fill="#F5F5F5"/>
<path d="M113.03 87.44H154.15V34.25H155.53V87.44H189V33.07H113.03V87.44Z" fill="#F5F5F5"/>
<path d="M189 88.48H155.54V148.44H189V88.48Z" fill="#F5F5F5"/>
<path d="M189 152.63H155.54V210.57H189V152.63Z" fill="#F5F5F5"/>
<path d="M67.5902 152.63H31.4502V210.57H67.5902V152.63Z" fill="#F5F5F5"/>
<path d="M154.15 152.63H113.03V210.57H154.15V152.63Z" fill="#F5F5F5"/>
<path d="M67.5902 211.61H31.4502V263.82H67.5902V211.61Z" fill="#F5F5F5"/>
<path d="M189 211.61H155.54V263.82H189V211.61Z" fill="#F5F5F5"/>
<path d="M67.5902 87.44V34.25H68.9802V87.44H108.02V33.07H31.4502V87.44H67.5902Z" fill="#F5F5F5"/>
<path d="M154.15 211.61H113.03V263.82H154.15V211.61Z" fill="#F5F5F5"/>
<path d="M108.03 211.61H68.98V263.82H108.03V211.61Z" fill="#F5F5F5"/>
<path d="M154.15 88.48H113.03V148.44H154.15V88.48Z" fill="#F5F5F5"/>
<path d="M256.52 45.12C256.52 45.12 256.52 45.05 256.52 44.92V44.36C256.52 43.84 256.52 43.12 256.52 42.2C256.52 40.31 256.52 37.6 256.46 34.2L256.56 34.32L224.38 34.41C224.45 34.31 224.21 34.62 224.54 34.2V39.75C224.54 41.57 224.54 43.37 224.54 45.13L224.38 44.92L247.32 45.02L254.09 45.07H255.92H256.4H256.57H255.96H254.17L247.43 45.13L224.43 45.22H224.27V34.19L224.44 33.97L256.62 34.06H256.72V34.19C256.72 37.64 256.72 40.38 256.67 42.29C256.67 43.2 256.67 43.91 256.67 44.41C256.67 44.64 256.67 44.81 256.67 44.95C256.67 45.09 256.53 45.12 256.52 45.12Z" fill="#E0E0E0"/>
<path d="M476.72 470.37C476.72 470.51 375.2 470.63 250.01 470.63C124.82 470.63 23.2798 470.51 23.2798 470.37C23.2798 470.23 124.77 470.11 250.01 470.11C375.25 470.11 476.72 470.22 476.72 470.37Z" fill="#263238"/>
<path d="M140.33 426.48C140.24 426.6 126.33 416.27 109.33 403.42C92.3302 390.57 78.5702 380.06 78.6502 380C78.7302 379.94 92.6502 390.2 109.65 403.06C126.65 415.92 140.42 426.37 140.33 426.48Z" fill="#263238"/>
<path d="M72.3403 427.68C72.2503 427.57 86.1103 416.79 103.34 403.61C120.57 390.43 134.53 379.83 134.62 379.95C134.71 380.07 120.85 390.84 103.62 404.02C86.3903 417.2 72.4203 427.79 72.3403 427.68Z" fill="#263238"/>
<path d="M82.5599 368.12L80.1099 381.41H83.7499L87.5199 368.12H82.5599Z" fill="#263238"/>
<path d="M76.2402 377.52C73.0002 393.71 60.5102 454.15 57.3502 469.41C57.2567 469.826 57.257 470.258 57.3509 470.674C57.4448 471.091 57.6301 471.481 57.8932 471.817C58.1564 472.153 58.4909 472.426 58.8726 472.617C59.2542 472.807 59.6736 472.911 60.1002 472.92V472.92C60.7251 472.915 61.3309 472.704 61.8229 472.318C62.3149 471.933 62.6656 471.396 62.8202 470.79L87.2102 379.88C87.4158 379.148 87.4517 378.378 87.315 377.63C87.1783 376.881 86.8726 376.174 86.4213 375.562C85.97 374.949 85.3849 374.448 84.7106 374.096C84.0363 373.744 83.2906 373.55 82.5302 373.53H81.0002C79.8669 373.539 78.772 373.942 77.9034 374.67C77.0349 375.398 76.4468 376.406 76.2402 377.52V377.52Z" fill="#455A64"/>
<path d="M130.93 368.12L133.38 381.41H129.74L125.97 368.12H130.93Z" fill="#263238"/>
<path d="M156.66 351C149.56 337.83 141.12 297.62 137.4 284.79C137.3 284.43 137.19 284.08 137.08 283.74C135.669 279.63 133.003 276.067 129.457 273.555C125.911 271.042 121.665 269.708 117.32 269.74H95.8999C91.5555 269.707 87.3107 271.041 83.7663 273.554C80.2219 276.066 77.5574 279.63 76.1499 283.74L75.8199 284.79C72.1099 297.62 63.6599 337.79 56.5699 351C56.5699 351 47.1099 356.57 49.8099 361.9C52.4199 367.03 76.7099 370.67 106.61 369.71C136.52 370.71 160.81 367.03 163.41 361.9C166.11 356.57 156.66 351 156.66 351Z" fill="#E0E0E0"/>
<path d="M156.66 351C157.48 351.468 158.263 352 159 352.59C159.921 353.285 160.778 354.061 161.56 354.91C162.679 356.043 163.483 357.45 163.89 358.99C164.069 359.939 163.95 360.921 163.55 361.8C163.047 362.749 162.26 363.518 161.3 364C160.305 364.559 159.261 365.024 158.18 365.39C157.06 365.8 155.88 366.15 154.65 366.47C149.008 367.812 143.271 368.715 137.49 369.17C131.05 369.77 123.95 370.08 116.28 370.09C114.36 370.09 112.41 370.09 110.42 370.09C108.43 370.09 106.42 369.95 104.42 370.09C100.32 370.197 96.0867 370.197 91.7201 370.09C82.5467 369.999 73.3922 369.237 64.3301 367.81C61.9344 367.407 59.5612 366.879 57.2201 366.23C56.0125 365.894 54.8269 365.483 53.6701 365C52.488 364.542 51.3873 363.897 50.4101 363.09C49.9133 362.639 49.5471 362.062 49.3501 361.42C49.3001 361.27 49.2301 361.11 49.1901 360.95L49.1301 360.46L49.0801 359.97C49.0801 359.8 49.0801 359.64 49.0801 359.47C49.2618 358.171 49.7826 356.943 50.5901 355.91C52.2034 353.876 54.1719 352.152 56.4001 350.82L56.3001 350.92C58.7333 345.828 60.7402 340.543 62.3001 335.12C63.9901 329.63 65.5401 324.01 67.0301 318.3C68.5901 312.3 70.0301 306.4 71.5001 300.56C72.2267 297.64 72.9467 294.74 73.6601 291.86C74.4101 288.99 75.0801 286.14 76.0101 283.34C76.9901 280.607 78.5337 278.11 80.5407 276.012C82.5476 273.914 84.9732 272.261 87.6601 271.16C90.2641 270.098 93.0477 269.544 95.8601 269.53H115.8C117.085 269.505 118.371 269.555 119.65 269.68C122.167 269.958 124.615 270.679 126.88 271.81C129.071 272.913 131.054 274.388 132.74 276.17C134.365 277.893 135.678 279.886 136.62 282.06L137.23 283.68C137.4 284.23 137.58 284.77 137.72 285.32C138.02 286.41 138.32 287.48 138.59 288.55C139.71 292.83 140.7 296.96 141.67 300.89C145.49 316.63 148.81 329.31 151.58 337.89C152.93 342.21 154.21 345.48 155.12 347.69C155.57 348.79 156 349.58 156.24 350.14L156.63 350.99C156.63 350.99 156.02 349.9 155.02 347.73C154.02 345.56 152.77 342.26 151.39 337.95C148.55 329.34 145.18 316.66 141.31 300.95C140.31 297.02 139.31 292.9 138.2 288.63C137.93 287.56 137.63 286.49 137.33 285.4C137.18 284.85 137.01 284.32 136.84 283.78C136.67 283.24 136.44 282.78 136.23 282.2C135.308 280.071 134.018 278.122 132.42 276.44C129.038 272.869 124.492 270.624 119.6 270.11C118.338 269.983 117.068 269.936 115.8 269.97H104C98.6801 270.14 93.0001 269.3 87.8601 271.58C85.2396 272.656 82.8744 274.27 80.9174 276.319C78.9605 278.367 77.4556 280.803 76.5001 283.47C75.6001 286.21 74.9101 289.09 74.1701 291.95C73.4301 294.81 72.7401 297.72 72.0101 300.64C70.5701 306.49 69.1101 312.41 67.5501 318.4C66.0601 324.11 64.5501 329.74 62.8101 335.24C61.2528 340.69 59.2459 346.002 56.8101 351.12V351.18H56.7501C54.5462 352.48 52.5977 354.171 51.0001 356.17C50.2429 357.129 49.7529 358.271 49.5801 359.48C49.5801 359.63 49.5801 359.78 49.5801 359.92L49.6301 360.36V360.8C49.6301 360.94 49.7301 361.08 49.7801 361.22C49.9458 361.782 50.2643 362.288 50.7001 362.68C51.6343 363.452 52.6881 364.067 53.8201 364.5C54.9431 364.971 56.0955 365.368 57.2701 365.69C59.5935 366.342 61.9502 366.87 64.3301 367.27C73.3651 368.703 82.4927 369.475 91.6401 369.58C95.9934 369.673 100.22 369.673 104.32 369.58C106.32 369.47 108.4 369.58 110.38 369.58C112.36 369.58 114.31 369.64 116.23 369.64C123.89 369.64 130.98 369.35 137.41 368.78C143.176 368.347 148.9 367.468 154.53 366.15C155.76 365.84 156.94 365.5 158.05 365.15C159.12 364.789 160.154 364.33 161.14 363.78C162.052 363.348 162.812 362.651 163.32 361.78C163.71 360.94 163.829 360 163.66 359.09C163.268 357.585 162.493 356.206 161.41 355.09C160.641 354.24 159.801 353.458 158.9 352.75C158.17 352.17 157.59 351.75 157.2 351.5L156.66 351Z" fill="#263238"/>
<path d="M137 377.52C140.22 393.71 152.73 454.15 155.88 469.41C155.974 469.826 155.973 470.258 155.88 470.674C155.786 471.091 155.6 471.481 155.337 471.817C155.074 472.153 154.74 472.426 154.358 472.617C153.976 472.807 153.557 472.911 153.13 472.92C152.505 472.915 151.9 472.704 151.408 472.318C150.915 471.933 150.565 471.396 150.41 470.79L126 379.88C125.795 379.148 125.759 378.38 125.895 377.632C126.031 376.884 126.336 376.178 126.786 375.566C127.236 374.953 127.82 374.452 128.493 374.099C129.166 373.747 129.911 373.552 130.67 373.53H132.21C133.348 373.534 134.449 373.934 135.324 374.663C136.198 375.391 136.791 376.401 137 377.52V377.52Z" fill="#455A64"/>
<path d="M152.26 358.27C152.191 358.303 152.116 358.323 152.04 358.33L151.36 358.45L148.77 358.85C146.52 359.19 143.26 359.62 139.21 360.08C131.12 361 119.9 361.89 107.48 362.08C95.0601 362.27 83.8001 361.75 75.6901 361.08C71.6301 360.76 68.3501 360.44 66.0901 360.17L63.4901 359.86L62.8101 359.76C62.731 359.757 62.6531 359.741 62.5801 359.71H62.8201H63.5001L66.1101 359.93C68.3701 360.14 71.6601 360.4 75.7101 360.68C83.8201 361.23 95.0601 361.68 107.47 361.5C119.88 361.32 131.08 360.5 139.17 359.62C143.22 359.21 146.49 358.84 148.75 358.56L151.35 358.25L152.03 358.19C152.112 358.2 152.19 358.227 152.26 358.27V358.27Z" fill="#263238"/>
<g opacity="0.3">
<path opacity="0.3" d="M145.92 353.65C145.15 351.73 142.04 351.25 139.49 351.13C115.585 349.972 91.6247 350.895 67.8799 353.89C67.2042 353.923 66.5446 354.108 65.9499 354.43C65.4199 354.78 65.1799 355.43 65.6399 355.88L65.5299 357.07C89.1299 362.26 114.21 361.18 138.53 358.62C140.362 358.541 142.164 358.132 143.85 357.41C145.38 356.61 146.49 355.06 145.92 353.65Z" fill="black"/>
</g>
<path d="M426 426.48C425.92 426.6 412 416.27 395 403.42C378 390.57 364.22 380.06 364.3 380C364.38 379.94 378.3 390.2 395.3 403.06C412.3 415.92 426.07 426.37 426 426.48Z" fill="#263238"/>
<path d="M358 427.68C357.91 427.57 371.77 416.79 388.95 403.61C406.13 390.43 420.14 379.83 420.23 379.95C420.32 380.07 406.46 390.84 389.23 404.02C372 417.2 358.08 427.79 358 427.68Z" fill="#263238"/>
<path d="M368.21 368.12L365.76 381.41H369.4L373.17 368.12H368.21Z" fill="#263238"/>
<path d="M361.89 377.52C358.66 393.71 346.16 454.15 343 469.41C342.906 469.827 342.907 470.26 343.001 470.677C343.096 471.094 343.282 471.485 343.546 471.821C343.811 472.157 344.146 472.43 344.529 472.62C344.912 472.81 345.333 472.913 345.76 472.92V472.92C346.383 472.913 346.987 472.7 347.477 472.315C347.967 471.93 348.316 471.394 348.47 470.79L372.86 379.88C373.066 379.148 373.102 378.378 372.965 377.63C372.828 376.881 372.523 376.174 372.071 375.562C371.62 374.949 371.035 374.448 370.361 374.096C369.686 373.744 368.94 373.55 368.18 373.53H366.64C365.508 373.541 364.416 373.945 363.549 374.673C362.683 375.401 362.096 376.407 361.89 377.52V377.52Z" fill="#455A64"/>
<path d="M416.58 368.12L419.03 381.41H415.39L411.62 368.12H416.58Z" fill="#263238"/>
<path d="M442.31 351C435.21 337.83 426.77 297.62 423.05 284.79C422.95 284.43 422.84 284.08 422.73 283.74C421.321 279.629 418.655 276.065 415.109 273.553C411.562 271.04 407.316 269.706 402.97 269.74H381.55C377.206 269.707 372.961 271.041 369.417 273.554C365.872 276.066 363.208 279.63 361.8 283.74C361.69 284.08 361.58 284.43 361.48 284.79C357.76 297.62 349.31 337.79 342.22 351C342.22 351 332.76 356.57 335.46 361.9C338.07 367.03 362.36 370.67 392.26 369.71C422.17 370.71 446.46 367.03 449.06 361.9C451.77 356.57 442.31 351 442.31 351Z" fill="#E0E0E0"/>
<path d="M442.31 351C443.13 351.468 443.913 352 444.65 352.59C445.571 353.285 446.428 354.061 447.21 354.91C448.334 356.04 449.138 357.448 449.54 358.99C449.717 359.938 449.602 360.918 449.21 361.8C448.713 362.74 447.943 363.507 447 364C446.006 364.561 444.962 365.026 443.88 365.39C442.77 365.8 441.58 366.15 440.35 366.47C434.709 367.812 428.971 368.715 423.19 369.17C416.76 369.77 409.65 370.08 401.98 370.09C400.06 370.09 398.11 370.09 396.12 370.09C394.13 370.09 392.12 369.95 390.12 370.09C386.02 370.197 381.787 370.197 377.42 370.09C368.247 369.999 359.092 369.237 350.03 367.81C347.634 367.407 345.261 366.879 342.92 366.23C341.727 365.899 340.554 365.495 339.41 365.02C338.229 364.559 337.129 363.915 336.15 363.11C335.653 362.661 335.29 362.083 335.1 361.44C335.033 361.287 334.976 361.13 334.93 360.97L334.87 360.48V359.99C334.87 359.82 334.87 359.66 334.87 359.49C335.052 358.191 335.573 356.963 336.38 355.93C337.996 353.899 339.964 352.174 342.19 350.84L342.09 350.94C344.523 345.848 346.53 340.563 348.09 335.14C349.78 329.65 351.33 324.03 352.81 318.32C354.37 312.32 355.81 306.42 357.28 300.58C358.013 297.66 358.733 294.76 359.44 291.88C360.19 289.01 360.87 286.16 361.79 283.36C362.77 280.627 364.314 278.13 366.321 276.032C368.328 273.934 370.753 272.281 373.44 271.18C376.044 270.118 378.828 269.564 381.64 269.55H401.59C402.875 269.525 404.161 269.575 405.44 269.7C407.953 269.979 410.398 270.7 412.66 271.83C414.851 272.933 416.834 274.408 418.52 276.19C420.102 277.897 421.381 279.862 422.3 282L422.91 283.62C423.08 284.17 423.26 284.71 423.4 285.26C423.7 286.35 424.01 287.42 424.28 288.49C425.39 292.77 426.39 296.9 427.35 300.83C431.17 316.57 434.49 329.25 437.26 337.83C438.61 342.15 439.89 345.42 440.8 347.63C441.25 348.73 441.68 349.52 441.92 350.08L442.31 350.93C442.31 350.93 441.7 349.84 440.7 347.67C439.7 345.5 438.45 342.2 437.07 337.89C434.23 329.28 430.86 316.6 426.99 300.89C425.99 296.96 424.99 292.84 423.89 288.57C423.61 287.5 423.31 286.43 423.01 285.34C422.86 284.79 422.69 284.26 422.52 283.72L421.92 282.14C420.991 280.013 419.698 278.064 418.1 276.38C414.724 272.806 410.18 270.561 405.29 270.05C404.028 269.923 402.758 269.876 401.49 269.91H389.67C384.35 270.08 378.67 269.24 373.53 271.52C370.91 272.596 368.544 274.21 366.587 276.259C364.631 278.307 363.126 280.743 362.17 283.41C361.27 286.15 360.58 289.03 359.84 291.89C359.1 294.75 358.41 297.66 357.68 300.58C356.24 306.43 354.78 312.35 353.22 318.34C351.73 324.05 350.22 329.68 348.48 335.18C346.923 340.63 344.916 345.942 342.48 351.06V351.12H342.42C340.252 352.417 338.335 354.094 336.76 356.07C336.006 357.029 335.52 358.172 335.35 359.38C335.35 359.53 335.35 359.68 335.35 359.82V360.26L335.4 360.7C335.4 360.84 335.5 360.98 335.55 361.12C335.716 361.682 336.034 362.188 336.47 362.58C337.404 363.352 338.458 363.967 339.59 364.4C340.713 364.871 341.866 365.268 343.04 365.59C345.364 366.242 347.72 366.77 350.1 367.17C359.135 368.603 368.263 369.375 377.41 369.48C381.763 369.573 385.99 369.573 390.09 369.48C392.14 369.37 394.17 369.48 396.15 369.48C398.13 369.48 400.08 369.54 402 369.54C409.66 369.54 416.76 369.25 423.18 368.68C428.946 368.247 434.67 367.367 440.3 366.05C441.54 365.74 442.71 365.4 443.82 365.05C444.89 364.689 445.924 364.23 446.91 363.68C447.822 363.248 448.582 362.551 449.09 361.68C449.478 360.84 449.6 359.901 449.44 358.99C449.046 357.484 448.267 356.105 447.18 354.99C446.414 354.138 445.574 353.355 444.67 352.65C443.94 352.07 443.36 351.65 442.97 351.4L442.31 351Z" fill="#263238"/>
<path d="M422.64 377.52C425.86 393.71 438.37 454.15 441.53 469.41C441.622 469.827 441.62 470.259 441.525 470.675C441.43 471.091 441.243 471.481 440.979 471.817C440.715 472.153 440.38 472.426 439.999 472.616C439.617 472.807 439.197 472.911 438.77 472.92V472.92C438.146 472.916 437.541 472.705 437.05 472.319C436.56 471.934 436.211 471.396 436.06 470.79L411.67 379.88C411.465 379.148 411.429 378.38 411.565 377.632C411.701 376.884 412.006 376.178 412.456 375.566C412.906 374.953 413.49 374.452 414.163 374.099C414.836 373.747 415.581 373.552 416.34 373.53H417.89C419.021 373.543 420.113 373.948 420.979 374.675C421.845 375.403 422.432 376.408 422.64 377.52Z" fill="#455A64"/>
<path d="M437.91 358.27C437.841 358.303 437.766 358.323 437.69 358.33L437.02 358.45L434.43 358.85C432.18 359.19 428.91 359.62 424.86 360.08C416.78 361 405.55 361.89 393.13 362.08C380.71 362.27 369.45 361.75 361.34 361.08C357.28 360.76 354 360.44 351.74 360.17L349.14 359.86L348.46 359.76C348.31 359.76 348.23 359.76 348.24 359.71H348.47H349.15L351.76 359.93C354.03 360.14 357.31 360.4 361.36 360.68C369.48 361.23 380.71 361.68 393.12 361.5C405.53 361.32 416.74 360.5 424.83 359.62C428.83 359.21 432.14 358.84 434.4 358.56L437 358.25L437.68 358.19C437.762 358.2 437.84 358.227 437.91 358.27Z" fill="#263238"/>
<g opacity="0.3">
<path opacity="0.3" d="M431.57 353.65C430.8 351.73 427.69 351.25 425.14 351.13C401.235 349.972 377.275 350.895 353.53 353.89C352.855 353.923 352.195 354.108 351.6 354.43C351.07 354.78 350.83 355.43 351.29 355.88L351.18 357.07C374.79 362.26 399.86 361.18 424.18 358.62C426.012 358.541 427.815 358.132 429.5 357.41C431 356.61 432.14 355.06 431.57 353.65Z" fill="black"/>
</g>
<path d="M414.67 111.34C434.061 111.34 449.78 95.6207 449.78 76.23C449.78 56.8393 434.061 41.12 414.67 41.12C395.279 41.12 379.56 56.8393 379.56 76.23C379.56 95.6207 395.279 111.34 414.67 111.34Z" fill="#5E77FF"/>
<path d="M414.78 107.38C431.984 107.38 445.93 93.4337 445.93 76.23C445.93 59.0263 431.984 45.08 414.78 45.08C397.577 45.08 383.63 59.0263 383.63 76.23C383.63 93.4337 397.577 107.38 414.78 107.38Z" fill="white"/>
<path d="M445.93 76.23C445.93 76.23 445.93 76.05 445.88 75.72C445.83 75.39 445.83 74.88 445.78 74.24L445.72 73.15C445.72 72.76 445.59 72.32 445.52 71.85C445.381 70.7658 445.164 69.6931 444.87 68.64C444.145 65.7278 442.982 62.9427 441.42 60.38C439.159 56.613 436.125 53.3672 432.52 50.8561C428.914 48.3449 424.818 46.6252 420.5 45.81C419.206 45.5652 417.896 45.4115 416.58 45.35C415.91 45.35 415.24 45.27 414.58 45.28L412.53 45.38C412.19 45.38 411.84 45.38 411.53 45.45L410.53 45.61C409.84 45.72 409.14 45.8 408.44 45.95C407.042 46.2627 405.666 46.6669 404.32 47.16C402.948 47.6579 401.612 48.2493 400.32 48.93C399.67 49.29 399.04 49.7 398.4 50.08C398.08 50.29 397.74 50.46 397.4 50.69L396.49 51.37C395.254 52.2893 394.081 53.2916 392.98 54.37C391.901 55.4981 390.899 56.6975 389.98 57.96L389.27 58.96L388.64 59.96L388.02 60.96C387.802 61.2989 387.608 61.6531 387.44 62.02C387.1 62.74 386.75 63.47 386.39 64.2C386.03 64.93 385.84 65.73 385.55 66.49C384.536 69.6456 384 72.9355 383.96 76.25C383.96 79.556 384.459 82.8431 385.44 86L386.28 88.3L387.33 90.48C387.492 90.8467 387.686 91.1981 387.91 91.53L388.53 92.53L389.15 93.53L389.87 94.53C390.789 95.7925 391.791 96.9919 392.87 98.12C393.971 99.1984 395.144 100.201 396.38 101.12L397.29 101.8C397.59 102.03 397.93 102.2 398.24 102.41C398.89 102.79 399.52 103.2 400.17 103.56C401.462 104.241 402.798 104.832 404.17 105.33C405.516 105.823 406.892 106.227 408.29 106.54C408.99 106.69 409.69 106.77 410.38 106.88L411.38 107.04C411.72 107.04 412.07 107.04 412.38 107.11L414.43 107.21C415.11 107.21 415.78 107.21 416.43 107.14C417.746 107.079 419.056 106.925 420.35 106.68C425.078 105.803 429.532 103.823 433.35 100.9C436.521 98.5048 439.2 95.5202 441.24 92.11C442.802 89.5473 443.965 86.7622 444.69 83.85C444.984 82.7969 445.201 81.7242 445.34 80.64C445.41 80.17 445.5 79.73 445.54 79.34L445.6 78.25C445.65 77.61 445.68 77.12 445.7 76.77C445.709 76.6026 445.725 76.4357 445.75 76.27V76.77C445.75 77.12 445.75 77.61 445.69 78.25C445.69 78.58 445.69 78.95 445.69 79.35C445.69 79.75 445.57 80.18 445.51 80.65C445.382 81.7428 445.178 82.8254 444.9 83.89C444.194 86.8272 443.045 89.6396 441.49 92.23C439.243 96.0304 436.215 99.3116 432.608 101.857C429 104.403 424.894 106.156 420.56 107C419.24 107.251 417.903 107.408 416.56 107.47C415.89 107.47 415.21 107.56 414.56 107.55L412.49 107.45C412.14 107.45 411.79 107.45 411.44 107.38L410.39 107.23C409.7 107.11 408.99 107.03 408.28 106.89C406.864 106.568 405.468 106.161 404.1 105.67C402.698 105.167 401.331 104.569 400.01 103.88C399.35 103.52 398.71 103.1 398.01 102.71C397.69 102.51 397.35 102.33 397.01 102.1L396.09 101.41C394.836 100.493 393.646 99.491 392.53 98.41C391.422 97.2719 390.393 96.0591 389.45 94.78L388.73 93.78L388.1 92.78L387.47 91.78C387.25 91.4366 387.053 91.0792 386.88 90.71L385.82 88.49C385.53 87.72 385.25 86.95 384.96 86.17C383.931 82.9689 383.385 79.6322 383.34 76.27C383.392 72.8922 383.952 69.5414 385 66.33C385.29 65.55 385.57 64.77 385.86 64C386.15 63.23 386.57 62.53 386.92 61.79C387.091 61.4197 387.288 61.0621 387.51 60.72L388.14 59.72L388.77 58.72L389.49 57.72C391.328 55.1278 393.582 52.8572 396.16 51L397.09 50.31C397.412 50.0884 397.746 49.8847 398.09 49.7C398.74 49.31 399.38 48.89 400.04 48.53C401.361 47.8409 402.728 47.2429 404.13 46.74C405.498 46.2494 406.894 45.842 408.31 45.52C409.02 45.38 409.72 45.3 410.42 45.19L411.47 45.03C411.82 45.03 412.17 45.03 412.52 44.96L414.59 44.86C415.28 44.86 415.96 44.92 416.59 44.94C417.933 45.0017 419.27 45.1588 420.59 45.41C424.953 46.2403 429.088 47.9906 432.721 50.5443C436.354 53.098 439.402 56.3965 441.66 60.22C443.195 62.8262 444.322 65.6524 445 68.6C445.278 69.6646 445.482 70.7472 445.61 71.84C445.67 72.31 445.75 72.74 445.79 73.14C445.83 73.54 445.79 73.91 445.79 74.24C445.79 74.88 445.79 75.37 445.85 75.72L445.93 76.23Z" fill="#263238"/>
<path d="M429.3 75.35C428.891 75.5042 428.469 75.6246 428.04 75.71L424.57 76.54C421.62 77.22 417.57 78.14 412.97 79.14L412.71 79.2V78C412.71 73.11 412.71 68.7 412.77 65.5C412.77 63.96 412.82 62.68 412.84 61.71C412.834 61.2453 412.86 60.7808 412.92 60.32C412.987 60.7802 413.017 61.245 413.01 61.71C413.01 62.71 413.01 63.96 413.08 65.5C413.08 68.7 413.14 73.11 413.14 78V78.9L412.88 78.69C417.44 77.69 421.54 76.82 424.5 76.21L428.01 75.52C428.434 75.4234 428.866 75.3665 429.3 75.35V75.35Z" fill="#263238"/>
<path d="M450.63 88C450.663 87.8266 450.71 87.6561 450.77 87.49C450.86 87.16 451.05 86.69 451.22 86.07C451.756 84.322 452.164 82.5372 452.44 80.73C453.388 74.756 452.819 68.6395 450.785 62.9429C448.751 57.2464 445.317 52.1526 440.8 48.13C439.439 46.9078 437.992 45.7849 436.47 44.77C435.94 44.39 435.47 44.15 435.22 43.95C435.067 43.8643 434.923 43.7639 434.79 43.65C434.954 43.7118 435.111 43.7888 435.26 43.88C435.56 44.05 436.02 44.27 436.56 44.63C438.13 45.5919 439.616 46.6859 441 47.9C445.629 51.9032 449.142 57.0361 451.2 62.7996C453.257 68.563 453.788 74.7607 452.74 80.79C452.437 82.6082 451.982 84.3978 451.38 86.14C451.18 86.76 450.97 87.22 450.85 87.54C450.795 87.7015 450.721 87.8559 450.63 88V88Z" fill="#263238"/>
<path d="M456.6 72.68C456.53 72.68 456.49 71.44 456.24 69.46C455.604 64.2804 453.902 59.2888 451.24 54.8C450.24 53.08 449.49 52.08 449.55 52.03C449.767 52.2284 449.961 52.4497 450.13 52.69C450.48 53.13 450.95 53.79 451.5 54.69C452.916 56.9099 454.064 59.2899 454.92 61.78C455.772 64.272 456.323 66.8571 456.56 69.48C456.65 70.48 456.68 71.3 456.68 71.86C456.687 72.1356 456.66 72.411 456.6 72.68V72.68Z" fill="#263238"/>
<path d="M381.36 59.42C381.314 59.5894 381.243 59.7511 381.15 59.9C381 60.21 380.74 60.64 380.47 61.23C379.669 62.8735 378.984 64.571 378.42 66.31C376.299 72.9526 376.118 80.0627 377.898 86.8047C379.678 93.5468 383.346 99.6405 388.47 104.37C388.93 104.83 389.33 105.14 389.58 105.37C389.716 105.48 389.84 105.604 389.95 105.74C389.795 105.657 389.651 105.557 389.52 105.44C389.25 105.23 388.84 104.93 388.36 104.5C386.964 103.299 385.672 101.981 384.5 100.56C380.563 95.8734 377.908 90.2471 376.791 84.2292C375.675 78.2112 376.136 72.0067 378.13 66.22C378.72 64.4761 379.453 62.7837 380.32 61.16C380.62 60.58 380.9 60.16 381.07 59.86C381.157 59.7072 381.254 59.5602 381.36 59.42V59.42Z" fill="#263238"/>
<path d="M373 73.61C373.07 73.61 372.91 74.85 372.85 76.85C372.76 79.4509 372.934 82.0543 373.37 84.62C373.819 87.1836 374.523 89.696 375.47 92.12C376.2 93.98 376.77 95.12 376.7 95.12C376.511 94.8955 376.353 94.6466 376.23 94.38C375.96 93.89 375.59 93.16 375.23 92.24C374.19 89.824 373.442 87.2929 373 84.7C372.561 82.1045 372.427 79.4666 372.6 76.84C372.67 75.84 372.78 75.02 372.87 74.47C372.874 74.1788 372.918 73.8895 373 73.61V73.61Z" fill="#263238"/>
<path d="M439.81 81.37C438.63 81.13 437.68 80.92 437.68 80.91C437.68 80.9 438.68 81.09 439.82 81.33C440.96 81.57 441.94 81.77 441.94 81.78C441.94 81.79 441 81.61 439.81 81.37Z" fill="#263238"/>
<path d="M439.81 81.37C439.81 81.3 440.31 81.37 441.09 81.44L441.73 81.53H441.9H442C442 81.53 441.78 81.53 441.77 81.68C441.754 81.7308 441.757 81.7854 441.777 81.8347C441.797 81.8839 441.833 81.9246 441.88 81.95C441.88 81.95 441.88 81.95 441.88 81.95L441.51 81.88L439.85 81.55L438.2 81.2L437.84 81.12C437.84 81.12 437.73 81.12 437.84 81.12C437.894 81.1105 437.943 81.0821 437.977 81.04C438.012 80.9978 438.031 80.9447 438.03 80.89C438.03 80.78 437.86 80.65 437.88 80.68H437.93H438.1L438.72 80.85C439.48 81.06 439.94 81.22 439.93 81.29C439.499 81.3525 439.06 81.3253 438.64 81.21L438.01 81.1H437.83H437.75C437.75 81.1 437.56 81 437.58 80.88C437.6 80.76 437.66 80.66 437.79 80.66H437.94L438.32 80.72C438.84 80.8 439.4 80.91 439.99 81.03C440.58 81.15 441.14 81.28 441.64 81.4L442.01 81.49H442.15C442.2 81.5174 442.239 81.5611 442.261 81.6138C442.283 81.6666 442.286 81.7252 442.27 81.78C442.27 81.89 442.03 81.96 442.02 81.93H441.94H441.77L441 81.8C440.26 81.6 439.79 81.44 439.81 81.37Z" fill="#263238"/>
<path d="M436.79 89.22C435.79 88.61 434.92 88.11 434.93 88.1C434.94 88.09 435.78 88.57 436.81 89.18C437.84 89.79 438.68 90.29 438.67 90.3C438.66 90.31 437.82 89.83 436.79 89.22Z" fill="#263238"/>
<path d="M436.79 89.22C436.79 89.16 437.28 89.35 437.98 89.7L438.55 90L438.7 90.07C438.7 90.07 438.48 90.07 438.44 90.14C438.405 90.1801 438.386 90.2317 438.386 90.285C438.386 90.3383 438.405 90.3899 438.44 90.43C438.44 90.43 438.44 90.43 438.39 90.43L438.07 90.24L436.61 89.4L435.16 88.53L434.84 88.34C434.84 88.34 434.74 88.34 434.84 88.34C434.894 88.3503 434.95 88.3408 434.998 88.3133C435.046 88.2857 435.082 88.242 435.1 88.19C435.17 88.09 435.02 87.91 435.03 87.95L435.18 88.04L435.71 88.4C436.36 88.85 436.71 89.15 436.71 89.21C436.71 89.27 436.22 89.08 435.52 88.72L434.95 88.41L434.79 88.32C434.79 88.32 434.63 88.16 434.7 88.06C434.719 88.0059 434.756 87.9607 434.806 87.9329C434.856 87.9052 434.915 87.897 434.97 87.91L435.11 87.97L435.45 88.15C435.91 88.4033 436.4 88.6833 436.92 88.99C437.44 89.29 437.92 89.59 438.37 89.87L438.69 90.08L438.8 90.16C438.834 90.2048 438.852 90.2592 438.852 90.315C438.852 90.3708 438.834 90.4252 438.8 90.47C438.75 90.57 438.51 90.56 438.51 90.53H438.46L438.31 90.44L437.76 90.09C437.14 89.59 436.75 89.28 436.79 89.22Z" fill="#263238"/>
<path d="M431.37 95.66C430.6 94.74 430 94 430 94C430 94 430.65 94.73 431.43 95.64C432.21 96.55 432.83 97.3 432.82 97.3C432.81 97.3 432.15 96.57 431.37 95.66Z" fill="#263238"/>
<path d="M431.37 95.66C431.43 95.66 431.79 95.94 432.37 96.5L432.82 96.96L432.94 97.09C432.94 97.09 432.74 96.99 432.67 97.09C432.622 97.1191 432.588 97.1653 432.573 97.2192C432.558 97.273 432.564 97.3305 432.59 97.38L432.34 97.09L431.24 95.82L430.15 94.53L429.91 94.24C429.91 94.24 429.83 94.16 429.91 94.24C429.958 94.2657 430.013 94.2739 430.066 94.2629C430.119 94.2519 430.167 94.2225 430.2 94.18C430.3 94.11 430.2 93.88 430.2 93.92L430.31 94.06L430.69 94.57C431.16 95.2 431.43 95.57 431.37 95.66C431.31 95.75 430.95 95.38 430.37 94.8L429.93 94.33L429.81 94.19C429.81 94.19 429.72 94 429.81 93.91C429.853 93.8733 429.908 93.8532 429.965 93.8532C430.022 93.8532 430.077 93.8733 430.12 93.91C430.161 93.9386 430.198 93.9722 430.23 94.01L430.49 94.29C430.85 94.67 431.22 95.1 431.61 95.56C432 96.02 432.37 96.46 432.69 96.87L432.93 97.17C432.93 97.17 432.93 97.17 433.01 97.28C433.09 97.39 433.01 97.57 432.93 97.58C432.85 97.59 432.63 97.58 432.64 97.58L432.53 97.44L432.12 96.93C431.59 96.12 431.32 95.7 431.37 95.66Z" fill="#263238"/>
<path d="M424.17 100C423.73 98.89 423.38 98 423.39 98C423.4 98 423.77 98.89 424.21 100C424.65 101.11 425 102 424.99 102C424.98 102 424.61 101.11 424.17 100Z" fill="#263238"/>
<path d="M424.17 100C424.24 100 424.48 100.4 424.82 101.11L425.09 101.69L425.16 101.85C425.16 101.85 425 101.68 424.91 101.74C424.855 101.752 424.807 101.785 424.775 101.831C424.744 101.878 424.731 101.934 424.74 101.99C424.74 101.99 424.74 101.99 424.74 101.99L424.59 101.65C424.38 101.13 424.17 100.65 423.96 100.08L423.35 98.51L423.21 98.16C423.21 98.16 423.21 98.06 423.21 98.16C423.251 98.1933 423.302 98.2115 423.355 98.2115C423.408 98.2115 423.459 98.1933 423.5 98.16C423.62 98.16 423.61 97.88 423.6 97.91V98L423.66 98.16L423.86 98.77C424.1 99.52 424.22 99.99 424.15 100.02C424.08 100.05 423.84 99.62 423.51 98.9C423.43 98.7 423.34 98.51 423.25 98.31L423.18 98.15V98C423.18 98 423.18 97.78 423.27 97.74C423.36 97.7 423.5 97.74 423.57 97.74C423.601 97.7828 423.624 97.83 423.64 97.88L423.8 98.23C424.01 98.7 424.23 99.23 424.45 99.79C424.67 100.35 424.88 100.88 425.05 101.37L425.18 101.74C425.18 101.74 425.18 101.74 425.18 101.87C425.18 102 425.08 102.14 425.02 102.13C424.96 102.12 424.73 102.02 424.75 102L424.69 101.83C424.62 101.63 424.55 101.43 424.47 101.22C424.294 100.836 424.192 100.422 424.17 100V100Z" fill="#263238"/>
<path d="M416 101.76C415.95 100.56 415.91 99.59 415.92 99.59C415.93 99.59 415.99 100.59 416.04 101.75C416.09 102.91 416.13 103.92 416.12 103.92C416.11 103.92 416 103 416 101.76Z" fill="#263238"/>
<path d="M416 101.76C416.07 101.76 416.16 102.24 416.25 103.02L416.32 103.66V103.87C416.32 103.87 416.23 103.66 416.12 103.69C416.01 103.72 415.88 103.75 415.88 103.86C415.88 103.97 415.88 103.86 415.88 103.86V103.48C415.88 102.92 415.82 102.37 415.79 101.8C415.76 101.23 415.79 100.67 415.73 100.11V99.7C415.73 99.7 415.73 99.6 415.73 99.7C415.752 99.7509 415.791 99.7927 415.84 99.8182C415.889 99.8438 415.946 99.8514 416 99.84C416.12 99.84 416.19 99.61 416.17 99.64V99.86C416.17 100.07 416.17 100.28 416.17 100.5C416.212 100.931 416.168 101.366 416.04 101.78C415.877 101.377 415.795 100.945 415.8 100.51C415.8 100.29 415.8 100.08 415.8 99.87V99.61C415.8 99.61 415.8 99.39 415.97 99.39C416.14 99.39 416.2 99.39 416.24 99.54C416.245 99.5899 416.245 99.6402 416.24 99.69V100.07C416.24 100.59 416.32 101.16 416.34 101.76C416.36 102.36 416.39 102.93 416.39 103.46V103.84C416.396 103.886 416.396 103.934 416.39 103.98C416.39 104.09 416.2 104.2 416.14 104.17C416.08 104.14 415.91 103.97 415.94 103.96V103.7C415.94 103.49 415.94 103.28 415.94 103.06C415.874 102.627 415.894 102.185 416 101.76Z" fill="#263238"/>
<path d="M407.6 100.75C407.93 99.6 408.21 98.67 408.22 98.67C408.23 98.67 407.97 99.61 407.64 100.76C407.31 101.91 407.02 102.84 407.01 102.84C407 102.84 407.26 101.9 407.6 100.75Z" fill="#263238"/>
<path d="M407.6 100.75C407.67 100.75 407.6 101.25 407.42 102.02C407.37 102.23 407.33 102.44 407.28 102.65V102.82V102.87C407.28 102.87 407.28 102.64 407.15 102.63C407.1 102.612 407.046 102.611 406.995 102.627C406.944 102.643 406.9 102.676 406.87 102.72L406.97 102.36C407.12 101.82 407.27 101.29 407.43 100.74C407.59 100.19 407.75 99.66 407.91 99.12L408.02 98.76C408.02 98.76 408.02 98.66 408.02 98.76C408.024 98.8138 408.046 98.8648 408.082 98.9047C408.118 98.9446 408.167 98.9711 408.22 98.98C408.34 98.98 408.48 98.82 408.45 98.84L408.39 99.01L408.17 99.61C407.9 100.35 407.71 100.8 407.64 100.78C407.57 100.76 407.64 100.27 407.82 99.5L407.98 98.88V98.7C407.98 98.7 408.09 98.51 408.21 98.55C408.33 98.59 408.42 98.64 408.42 98.77C408.425 98.8199 408.425 98.8701 408.42 98.92L408.33 99.3C408.21 99.8 408.06 100.36 407.89 100.93C407.72 101.5 407.55 102.06 407.39 102.55L407.26 102.91C407.25 102.956 407.234 103 407.21 103.04C407.183 103.089 407.138 103.127 407.084 103.145C407.031 103.164 406.972 103.162 406.92 103.14C406.81 103.14 406.76 102.89 406.79 102.88V102.81L406.84 102.63L407.05 102.02C407.33 101.18 407.53 100.73 407.6 100.75Z" fill="#263238"/>
<path d="M400 97.09C400.69 96.09 401.26 95.32 401.27 95.33C401.28 95.34 400.73 96.14 400.03 97.12C399.33 98.1 398.77 98.88 398.76 98.88C398.75 98.88 399.33 98.07 400 97.09Z" fill="#263238"/>
<path d="M400 97.09C400.06 97.09 399.83 97.57 399.42 98.24C399.3 98.42 399.19 98.6 399.08 98.78L398.99 98.93C398.99 98.93 399.05 98.7 398.99 98.66C398.948 98.6241 398.895 98.6043 398.84 98.6043C398.785 98.6043 398.732 98.6241 398.69 98.66C398.69 98.66 398.69 98.66 398.69 98.66L398.91 98.35L399.91 96.96C400.25 96.5 400.57 96.05 400.91 95.59L401.13 95.29C401.13 95.29 401.18 95.2 401.13 95.29C401.116 95.3431 401.121 95.3995 401.145 95.4491C401.169 95.4986 401.21 95.5379 401.26 95.56C401.36 95.63 401.55 95.5 401.51 95.51L401.4 95.64L401 96.14C400.5 96.75 400.17 97.14 400.11 97.07C400.05 97 400.28 96.59 400.7 95.93C400.82 95.74 400.93 95.56 401.05 95.39L401.15 95.24C401.15 95.24 401.32 95.1 401.42 95.17C401.471 95.1959 401.512 95.2394 401.534 95.2927C401.556 95.3459 401.558 95.4053 401.54 95.46C401.48 95.58 401.49 95.54 401.47 95.59L401.26 95.92C400.98 96.35 400.65 96.82 400.26 97.31C399.87 97.8 399.57 98.31 399.26 98.68L399.02 98.98L398.93 99.09C398.887 99.1266 398.832 99.1468 398.775 99.1468C398.718 99.1468 398.663 99.1266 398.62 99.09C398.52 99.04 398.55 98.8 398.62 98.8L398.72 98.65L399.12 98.14C399.63 97.41 400 97.05 400 97.09Z" fill="#263238"/>
<path d="M394.05 91.17L395.82 89.91C395.82 89.91 395.05 90.5 394.08 91.2C393.11 91.9 392.31 92.46 392.3 92.45L394.05 91.17Z" fill="#263238"/>
<path d="M394.05 91.17C394.05 91.23 393.74 91.56 393.13 92.06L392.63 92.47L392.5 92.58C392.5 92.58 392.62 92.38 392.5 92.3C392.473 92.2529 392.43 92.217 392.378 92.1987C392.327 92.1804 392.271 92.1808 392.22 92.2V92.2L392.52 91.98L393.88 90.98L395.26 89.98L395.57 89.77C395.57 89.77 395.65 89.7 395.57 89.77C395.536 89.8126 395.517 89.8655 395.517 89.92C395.517 89.9745 395.536 90.0274 395.57 90.07C395.64 90.18 395.87 90.07 395.83 90.07L395.68 90.16L395.14 90.51C394.48 90.92 394.04 91.16 394 91.1C393.96 91.04 394.31 90.7 394.93 90.21L395.44 89.81L395.58 89.7C395.58 89.7 395.78 89.62 395.85 89.7C395.92 89.78 395.96 89.91 395.85 90L395.74 90.11L395.44 90.35C395.02 90.67 394.57 91.01 394.08 91.35C393.59 91.69 393.08 92.03 392.69 92.35L392.37 92.56L392.25 92.63C392.15 92.69 391.96 92.63 391.96 92.53C391.96 92.43 391.96 92.23 392.01 92.25L392.16 92.14L392.69 91.79C393.58 91.34 394 91.11 394.05 91.17Z" fill="#263238"/>
<path d="M390.32 83.63C391.47 83.28 392.4 83.01 392.4 83.02C392.4 83.03 391.48 83.32 390.33 83.67C389.18 84.02 388.25 84.29 388.25 84.28C388.25 84.27 389.17 84 390.32 83.63Z" fill="#263238"/>
<path d="M390.32 83.63C390.32 83.7 389.89 83.9 389.16 84.18L388.56 84.4L388.39 84.46C388.39 84.46 388.57 84.32 388.52 84.21C388.47 84.1 388.4 84 388.29 84.03C388.18 84.06 388.29 84.03 388.34 84.03L388.69 83.91L390.31 83.41L391.92 82.93L392.28 82.83C392.28 82.83 392.38 82.83 392.28 82.83C392.236 82.8621 392.205 82.909 392.192 82.9621C392.179 83.0152 392.186 83.0712 392.21 83.12C392.21 83.24 392.48 83.26 392.45 83.24H392.39H392.22L391.6 83.39C390.83 83.57 390.35 83.65 390.33 83.58C390.31 83.51 390.75 83.31 391.49 83.04C391.7 82.97 391.9 82.89 392.11 82.83L392.28 82.77H392.35C392.35 82.77 392.57 82.77 392.61 82.88C392.635 82.9314 392.64 82.9897 392.625 83.0447C392.611 83.0996 392.577 83.1476 392.53 83.18L392.39 83.24L392.03 83.37C391.54 83.54 391.03 83.71 390.42 83.89C389.81 84.07 389.29 84.22 388.79 84.35L388.42 84.45H388.28C388.17 84.45 388.02 84.32 388.04 84.26C388.06 84.2 388.17 83.98 388.18 84.01H388.23L388.4 83.96L389.03 83.8C389.81 83.64 390.3 83.56 390.32 83.63Z" fill="#263238"/>
<path d="M389.24 75.29C390.44 75.29 391.41 75.38 391.41 75.39C391.41 75.4 390.41 75.39 389.24 75.33L387.07 75.23C387.07 75.23 388 75.24 389.24 75.29Z" fill="#263238"/>
<path d="M389.24 75.29C388.827 75.421 388.392 75.4686 387.96 75.43H387.09C387.09 75.43 387.31 75.36 387.29 75.25C387.303 75.1957 387.294 75.1387 387.266 75.0904C387.238 75.0422 387.193 75.0063 387.14 74.99C387.14 74.99 387.14 74.99 387.19 74.99H387.56H389.25L390.94 75.06H391.31C391.31 75.06 391.42 75.06 391.31 75.06C391.258 75.0782 391.214 75.1144 391.187 75.1621C391.159 75.2099 391.15 75.2659 391.16 75.32C391.16 75.44 391.37 75.53 391.34 75.5H391.11L390.47 75.43C390.039 75.4343 389.612 75.3563 389.21 75.2C389.623 75.0699 390.059 75.0257 390.49 75.07H391.4C391.4 75.07 391.61 75.14 391.6 75.26C391.607 75.3165 391.594 75.3736 391.563 75.4212C391.532 75.4688 391.485 75.5038 391.43 75.52C391.38 75.5288 391.33 75.5288 391.28 75.52H390.89H389.2C388.6 75.52 388.03 75.52 387.51 75.43H387.13H386.99C386.88 75.43 386.78 75.23 386.82 75.17C386.86 75.11 387.03 74.95 387.04 74.98H387.3H387.94C388.39 74.9901 388.834 75.0957 389.24 75.29V75.29Z" fill="#263238"/>
<path d="M390.93 67C392.05 67.43 392.93 67.79 392.93 67.8C392.93 67.81 392.01 67.47 390.93 67.04C389.85 66.61 388.93 66.26 388.93 66.25C388.93 66.24 389.81 66.62 390.93 67Z" fill="#263238"/>
<path d="M390.93 67C390.93 67.07 390.43 67 389.68 66.73L389.06 66.53H388.9C388.9 66.53 389.13 66.53 389.14 66.41C389.167 66.3644 389.176 66.3101 389.165 66.2582C389.154 66.2062 389.124 66.1604 389.08 66.13C389.08 66.13 389.08 66.13 389.13 66.13L389.48 66.26L391.06 66.85L392.63 67.47L392.98 67.6C392.98 67.6 393.08 67.6 392.98 67.6C392.927 67.6015 392.876 67.6212 392.836 67.6558C392.796 67.6905 392.769 67.7378 392.76 67.79C392.71 67.91 392.89 68.06 392.87 68.02L392.71 67.95L392.13 67.68C391.42 67.35 390.98 67.12 391.01 67.05C391.441 67.0669 391.866 67.1653 392.26 67.34L392.88 67.55L393.04 67.61H393.09C393.09 67.61 393.27 67.74 393.22 67.86C393.208 67.9138 393.178 67.9615 393.134 67.9945C393.09 68.0275 393.035 68.0437 392.98 68.04H392.83L392.46 67.92L390.87 67.34L389.3 66.71L388.95 66.55L388.83 66.49C388.783 66.4576 388.75 66.4096 388.735 66.3547C388.721 66.2997 388.726 66.2414 388.75 66.19C388.75 66.08 389.01 66.05 389.02 66.08L389.19 66.15L389.78 66.4C390.53 66.74 391 67 390.93 67Z" fill="#263238"/>
<path d="M395.2 59.8C396.12 60.57 396.86 61.2 396.85 61.21C396.84 61.22 396.09 60.6 395.18 59.83C394.27 59.06 393.52 58.43 393.53 58.42C393.54 58.41 394.28 59 395.2 59.8Z" fill="#263238"/>
<path d="M395.2 59.8C395.2 59.85 394.74 59.59 394.11 59.12C393.93 59 393.76 58.87 393.59 58.74L393.45 58.64C393.45 58.64 393.67 58.71 393.72 58.64C393.755 58.5999 393.775 58.5483 393.775 58.495C393.775 58.4416 393.755 58.3901 393.72 58.35L394.01 58.59L395.31 59.66L396.6 60.76L396.88 61C396.88 61 396.97 61.06 396.88 61C396.829 60.9808 396.773 60.9804 396.722 60.9987C396.671 61.017 396.627 61.0529 396.6 61.1C396.52 61.19 396.6 61.4 396.6 61.36L396.48 61.24L396.01 60.8C395.45 60.25 395.12 59.89 395.16 59.8C395.2 59.71 395.62 60 396.25 60.48L396.76 60.87L396.9 60.99C396.9 60.99 397.03 61.17 396.95 61.27C396.92 61.3161 396.874 61.3503 396.821 61.3667C396.768 61.3831 396.711 61.3807 396.66 61.36C396.612 61.3419 396.568 61.3148 396.53 61.28L396.22 61.05C395.81 60.73 395.37 60.37 394.91 59.98C394.45 59.59 394.02 59.22 393.63 58.87L393.35 58.61L393.25 58.51C393.215 58.4659 393.196 58.4112 393.196 58.355C393.196 58.2987 393.215 58.2441 393.25 58.2C393.31 58.11 393.55 58.2 393.54 58.2L393.67 58.32L394.15 58.75C394.92 59.38 395.25 59.74 395.2 59.8Z" fill="#263238"/>
<path d="M401.6 54.34C402.22 55.34 402.71 56.2 402.7 56.21C402.69 56.22 402.18 55.39 401.56 54.36C400.94 53.33 400.45 52.5 400.46 52.49C400.47 52.48 401 53.31 401.6 54.34Z" fill="#263238"/>
<path d="M401.6 54.34C401.53 54.34 401.23 53.99 400.78 53.34L400.41 52.81L400.31 52.67C400.31 52.67 400.49 52.81 400.58 52.74C400.67 52.67 400.76 52.56 400.7 52.47C400.64 52.38 400.7 52.47 400.7 52.47L400.9 52.79L401.78 54.22C402.08 54.72 402.36 55.22 402.64 55.68L402.84 56C402.84 56 402.9 56.09 402.84 56C402.8 55.9648 402.749 55.9454 402.695 55.9454C402.642 55.9454 402.59 55.9648 402.55 56C402.44 56.06 402.49 56.29 402.49 56.25L402.41 56.1L402.11 55.53C401.75 54.83 401.55 54.38 401.62 54.35C401.69 54.32 401.98 54.69 402.43 55.35L402.78 55.89L402.88 56.05C402.88 56.05 402.94 56.26 402.88 56.32C402.837 56.3566 402.782 56.3768 402.725 56.3768C402.668 56.3768 402.614 56.3566 402.57 56.32C402.535 56.2846 402.504 56.2441 402.48 56.2L402.27 55.88C401.977 55.44 401.677 54.96 401.37 54.44C401.06 53.93 400.77 53.44 400.52 52.98L400.33 52.64C400.308 52.6011 400.288 52.5611 400.27 52.52C400.256 52.4652 400.26 52.4072 400.281 52.3548C400.303 52.3025 400.341 52.2587 400.39 52.23C400.48 52.17 400.69 52.29 400.67 52.32L400.76 52.48L401.07 53.04C401.46 53.85 401.66 54.3 401.6 54.34Z" fill="#263238"/>
<path d="M409.41 51.24C409.66 52.41 409.86 53.36 409.85 53.37C409.84 53.38 409.62 52.42 409.37 51.25C409.12 50.08 408.92 49.12 408.93 49.12C408.94 49.12 409.16 50.07 409.41 51.24Z" fill="#263238"/>
<path d="M409.41 51.24C409.34 51.24 409.17 50.79 408.96 50.04L408.78 49.42V49.25C408.78 49.25 408.91 49.44 409.01 49.4C409.11 49.36 409.23 49.29 409.22 49.18C409.21 49.07 409.22 49.18 409.22 49.18L409.3 49.54C409.43 50.09 409.55 50.63 409.67 51.19C409.79 51.75 409.9 52.3 410.02 52.84L410.09 53.21C410.09 53.21 410.09 53.31 410.09 53.21C410.063 53.1631 410.019 53.1279 409.968 53.1113C409.916 53.0947 409.86 53.0978 409.81 53.12C409.68 53.12 409.66 53.37 409.67 53.34V53.28V53.11L409.57 52.48C409.461 52.0625 409.434 51.6278 409.49 51.2C409.56 51.2 409.73 51.64 409.93 52.4C409.99 52.62 410.04 52.82 410.1 53.03V53.21V53.28C410.1 53.28 410.1 53.5 409.97 53.53C409.84 53.56 409.73 53.53 409.68 53.43C409.63 53.33 409.68 53.33 409.68 53.28L409.58 52.91C409.45 52.41 409.32 51.85 409.19 51.26C409.06 50.67 408.96 50.11 408.86 49.6L408.8 49.22C408.8 49.22 408.8 49.22 408.8 49.09C408.8 48.96 408.95 48.84 409.01 48.86C409.07 48.88 409.27 49.01 409.25 49.02V49.1V49.28L409.37 49.91C409.474 50.346 409.487 50.7985 409.41 51.24Z" fill="#263238"/>
<path d="M417.81 50.85C417.67 52.04 417.54 53.01 417.53 53.01C417.52 53.01 417.63 52.01 417.77 50.85C417.91 49.69 418.04 48.69 418.05 48.69C418.06 48.69 418 49.66 417.81 50.85Z" fill="#263238"/>
<path d="M417.81 50.85C417.73 50.4271 417.73 49.9929 417.81 49.57V48.93V48.7C417.81 48.7 417.86 48.92 417.98 48.91C418.032 48.9236 418.087 48.918 418.135 48.894C418.183 48.8701 418.22 48.8296 418.24 48.78C418.24 48.78 418.24 48.78 418.24 48.78V49.15C418.18 49.71 418.11 50.26 418.05 50.83C417.99 51.4 417.91 51.95 417.84 52.5L417.79 52.88C417.79 52.88 417.79 52.98 417.79 52.88C417.781 52.827 417.752 52.7795 417.71 52.7463C417.667 52.7131 417.614 52.6967 417.56 52.7C417.43 52.7 417.33 52.89 417.36 52.87V52.81V52.64C417.36 52.44 417.44 52.23 417.47 52.01C417.62 51.24 417.74 50.76 417.81 50.77C417.897 51.1956 417.897 51.6343 417.81 52.06C417.81 52.28 417.81 52.49 417.81 52.7V52.88V53C417.81 53 417.73 53.2 417.6 53.19C417.47 53.18 417.38 53.13 417.36 53C417.354 52.9502 417.354 52.8998 417.36 52.85V52.46C417.36 51.94 417.46 51.37 417.53 50.78C417.6 50.19 417.68 49.61 417.76 49.1L417.83 48.72C417.83 48.72 417.83 48.72 417.83 48.59C417.83 48.46 418.05 48.4 418.1 48.44C418.15 48.48 418.3 48.66 418.28 48.67V48.75V48.93C418.28 49.14 418.22 49.35 418.18 49.57C418 50.39 417.88 50.86 417.81 50.85Z" fill="#263238"/>
<path d="M425.89 53.21C425.37 54.29 424.94 55.16 424.89 55.16C424.84 55.16 425.29 54.27 425.81 53.16C426.33 52.05 426.76 51.21 426.81 51.21C426.86 51.21 426.41 52.13 425.89 53.21Z" fill="#263238"/>
<path d="M425.89 53.21C425.939 52.7799 426.068 52.3628 426.27 51.98C426.35 51.78 426.44 51.58 426.51 51.39L426.58 51.23C426.58 51.23 426.58 51.45 426.67 51.48C426.709 51.5173 426.761 51.5381 426.815 51.5381C426.869 51.5381 426.921 51.5173 426.96 51.48C426.96 51.48 426.96 51.48 426.96 51.48L426.8 51.82C426.56 52.32 426.32 52.82 426.08 53.34L425.33 54.86L425.17 55.2C425.17 55.2 425.17 55.3 425.17 55.2C425.173 55.1468 425.157 55.0943 425.126 55.0509C425.096 55.0075 425.051 54.9755 425 54.96C424.89 54.9 424.72 55.07 424.76 55.05L424.85 54.9L425.16 54.34C425.55 53.66 425.82 53.25 425.88 53.28C425.94 53.31 425.79 53.78 425.49 54.51L425.23 55.1L425.16 55.26V55.31C425.16 55.31 425.02 55.48 424.91 55.42C424.8 55.36 424.71 55.29 424.74 55.17L424.79 55.02L424.94 54.67C425.15 54.19 425.39 53.67 425.65 53.13C425.91 52.59 426.16 52.13 426.41 51.61L426.59 51.28C426.609 51.2375 426.632 51.1972 426.66 51.16C426.72 51.06 426.93 51.05 426.97 51.16C427.01 51.27 427.08 51.43 427.05 51.43L426.97 51.59L426.67 52.16C426.23 52.83 426 53.24 425.89 53.21Z" fill="#263238"/>
<path d="M432.76 58.07C431.91 58.92 431.22 59.6 431.21 59.59C431.2 59.58 431.88 58.89 432.73 58.04C433.58 57.19 434.26 56.5 434.27 56.51C434.28 56.52 433.6 57.21 432.76 58.07Z" fill="#263238"/>
<path d="M432.76 58.07C432.71 58.01 433 57.62 433.52 57.07L433.94 56.59L434.06 56.46C434.06 56.46 433.97 56.66 434.06 56.73C434.094 56.7727 434.142 56.8014 434.195 56.8106C434.249 56.8199 434.304 56.8089 434.35 56.78C434.35 56.78 434.35 56.78 434.35 56.78L434.09 57.05C433.7 57.45 433.32 57.85 432.91 58.26L431.72 59.45L431.45 59.71C431.45 59.71 431.38 59.79 431.45 59.71C431.472 59.6598 431.476 59.6037 431.461 59.5509C431.446 59.4982 431.414 59.452 431.37 59.42C431.29 59.33 431.07 59.42 431.11 59.42L431.24 59.3L431.72 58.88C432.31 58.36 432.72 58.05 432.72 58.11C432.72 58.17 432.47 58.55 431.95 59.11C431.8 59.27 431.66 59.43 431.51 59.58L431.39 59.71C431.39 59.71 431.2 59.82 431.11 59.71C431.065 59.6762 431.033 59.6276 431.02 59.5727C431.008 59.5179 431.015 59.4603 431.04 59.41L431.13 59.29L431.39 59.01C431.74 58.62 432.14 58.21 432.56 57.78C432.98 57.35 433.39 56.96 433.78 56.6L434.06 56.34C434.089 56.3055 434.123 56.2753 434.16 56.25C434.205 56.2167 434.259 56.1987 434.315 56.1987C434.371 56.1987 434.425 56.2167 434.47 56.25C434.56 56.32 434.47 56.55 434.47 56.54L434.34 56.67L433.87 57.11C433.2 57.82 432.81 58.12 432.76 58.07Z" fill="#263238"/>
<path d="M437.68 64.88C436.6 65.42 435.73 65.88 435.68 65.88C435.63 65.88 436.54 65.43 437.62 64.88C438.7 64.33 439.57 63.88 439.57 63.93C439.57 63.98 438.75 64.35 437.68 64.88Z" fill="#263238"/>
<path d="M437.68 64.88C437.68 64.82 438.05 64.55 438.73 64.15L439.29 63.83L439.44 63.74C439.44 63.74 439.29 63.91 439.36 64C439.378 64.052 439.415 64.0957 439.462 64.1233C439.51 64.1508 439.566 64.1603 439.62 64.15C439.62 64.15 439.62 64.15 439.57 64.15L439.24 64.32L437.73 65.08L436.22 65.82L435.88 65.98C435.88 65.98 435.79 66.04 435.88 65.98C435.914 65.9374 435.933 65.8845 435.933 65.83C435.933 65.7755 435.914 65.7226 435.88 65.68C435.88 65.57 435.6 65.6 435.63 65.61H435.69L435.84 65.54L436.44 65.29C436.818 65.0811 437.232 64.9454 437.66 64.89C437.66 64.96 437.28 65.23 436.6 65.62L436.03 65.93L435.87 66.01H435.82C435.82 66.01 435.6 66.01 435.55 65.94C435.512 65.8976 435.49 65.8423 435.49 65.785C435.49 65.7277 435.512 65.6724 435.55 65.63C435.592 65.6003 435.635 65.5736 435.68 65.55L436.02 65.36C436.48 65.1133 436.98 64.8533 437.52 64.58C438.06 64.32 438.58 64.07 439.05 63.86L439.4 63.7H439.53C439.64 63.7 439.81 63.78 439.8 63.84C439.79 63.9 439.72 64.14 439.7 64.12L439.54 64.2L438.95 64.47C438.17 64.79 437.71 65 437.68 64.88Z" fill="#263238"/>
<path d="M440.12 72.93C438.93 73.08 437.97 73.2 437.97 73.19C437.97 73.18 438.97 73.04 440.12 72.89C441.27 72.74 442.27 72.61 442.27 72.62C442.27 72.63 441.31 72.77 440.12 72.93Z" fill="#263238"/>
<path d="M440.12 72.93C440.12 72.85 440.59 72.73 441.36 72.57L441.99 72.45H442.16C442.16 72.45 441.96 72.56 442 72.67C442.04 72.78 442.08 72.9 442.19 72.89H441.81L440.14 73.12L438.47 73.33H438.09C438.09 73.33 437.99 73.33 438.09 73.33C438.14 73.306 438.18 73.2637 438.2 73.2117C438.221 73.1597 438.221 73.1019 438.2 73.05C438.2 72.93 437.96 72.88 437.99 72.9H438.22H438.86C439.64 72.85 440.13 72.85 440.14 72.9C440.15 72.95 439.68 73.1 438.9 73.24L438.27 73.35H438.09H438C438 73.35 437.78 73.35 437.77 73.2C437.76 73.05 437.77 72.97 437.89 72.92H438.04L438.42 72.86C438.93 72.77 439.5 72.69 440.09 72.61C440.68 72.53 441.26 72.46 441.78 72.42H442.16H442.3C442.41 72.42 442.53 72.58 442.51 72.64C442.49 72.7 442.34 72.89 442.32 72.87H442.24H442.06L441.42 72.93C440.991 73.0167 440.549 73.0167 440.12 72.93V72.93Z" fill="#263238"/>
<path d="M458.8 69C458.334 70.4089 457.731 71.7687 457 73.06V73.16L456.83 73.49L456.63 73.18C455.778 72.011 455.041 70.7618 454.43 69.45C455.402 70.5241 456.263 71.6933 457 72.94H456.62L456.67 72.85C457.256 71.5015 457.969 70.2123 458.8 69V69Z" fill="#263238"/>
<path d="M180.553 191.875C195.05 185.481 201.619 168.544 195.225 154.047C188.831 139.549 171.895 132.98 157.397 139.374C142.9 145.769 136.33 162.705 142.725 177.202C149.119 191.7 166.055 198.269 180.553 191.875Z" fill="white"/>
<path d="M197.71 188.63C197.71 188.63 197.39 188.63 196.87 188.82C196.131 189.073 195.488 189.548 195.03 190.18C194.709 190.606 194.487 191.098 194.38 191.62C194.267 192.218 194.329 192.836 194.56 193.4C194.794 194.062 195.225 194.637 195.795 195.047C196.365 195.457 197.048 195.683 197.75 195.694C198.452 195.705 199.141 195.5 199.724 195.108C200.307 194.716 200.755 194.155 201.01 193.5C201.258 192.945 201.342 192.331 201.25 191.73C201.159 191.205 200.954 190.707 200.65 190.27C200.208 189.627 199.58 189.135 198.85 188.86C198.33 188.67 198.01 188.66 198.02 188.63H198.24C198.333 188.622 198.426 188.622 198.52 188.63C198.642 188.649 198.763 188.679 198.88 188.72C199.532 188.935 200.116 189.32 200.571 189.835C201.026 190.35 201.336 190.976 201.47 191.65C201.575 192.296 201.495 192.958 201.24 193.56C200.951 194.216 200.492 194.782 199.91 195.2C199.291 195.677 198.53 195.93 197.749 195.919C196.969 195.908 196.214 195.634 195.61 195.14C195.039 194.702 194.597 194.118 194.33 193.45C194.087 192.84 194.028 192.173 194.16 191.53C194.317 190.863 194.648 190.249 195.119 189.75C195.589 189.252 196.183 188.886 196.84 188.69C196.959 188.646 197.083 188.619 197.21 188.61H197.48L197.71 188.63Z" fill="#263238"/>
<path d="M197.59 170C197.59 170 197.59 169.84 197.59 169.53C197.59 169.22 197.66 168.76 197.71 168.16C197.71 167.86 197.77 167.53 197.81 167.16C197.85 166.79 197.81 166.38 197.81 165.93V164.51C197.829 164.247 197.829 163.983 197.81 163.72C197.81 163.45 197.75 163.18 197.72 162.89C197.464 160.114 196.79 157.394 195.72 154.82C194.333 151.395 192.295 148.27 189.72 145.62L188.63 144.51C188.24 144.16 187.83 143.83 187.42 143.51L186.8 142.99C186.596 142.807 186.379 142.64 186.15 142.49L184.79 141.55C184.55 141.4 184.33 141.23 184.09 141.08L183.34 140.67L181.83 139.84C181.32 139.58 180.77 139.37 180.23 139.13L179.41 138.78L178.99 138.61L178.56 138.48C177.407 138.067 176.228 137.733 175.03 137.48C174.42 137.37 173.81 137.21 173.19 137.13L171.29 136.93C170.97 136.93 170.65 136.86 170.29 136.85H169.29C168.64 136.85 167.98 136.85 167.29 136.85C165.947 136.942 164.611 137.119 163.29 137.38L162.29 137.58L161.79 137.69L161.3 137.84L159.3 138.44C158.65 138.67 158.02 138.96 157.37 139.22C157.05 139.37 156.71 139.48 156.37 139.64L155.44 140.14C154.175 140.808 152.955 141.56 151.79 142.39L150.1 143.75L149.67 144.1L149.28 144.48L148.5 145.25L147.71 146.03L146.99 146.87L146.27 147.73L145.91 148.15L145.59 148.61L144.32 150.47L143.22 152.47C140.364 157.988 139.394 164.289 140.46 170.41C140.61 171.16 140.75 171.9 140.9 172.64L141.56 174.79L141.73 175.33L141.94 175.84L142.37 176.84L142.79 177.84L143.31 178.84L143.83 179.84L144.09 180.32L144.39 180.78C144.79 181.38 145.2 181.99 145.59 182.59C146.451 183.733 147.39 184.816 148.4 185.83L149.14 186.59C149.38 186.84 149.67 187.05 149.93 187.28C150.47 187.72 150.99 188.19 151.54 188.61L153.24 189.78L153.66 190.07L154.11 190.32L155 190.81C156.169 191.453 157.378 192.021 158.62 192.51C159.24 192.74 159.87 192.91 160.49 193.11L161.41 193.4C161.72 193.49 162.04 193.54 162.41 193.61L164.27 194C164.89 194.1 165.52 194.14 166.14 194.21C167.355 194.346 168.578 194.393 169.8 194.35H170.25H170.7L171.58 194.26C172.17 194.2 172.76 194.17 173.33 194.07L175.02 193.74L175.85 193.57L176.66 193.33L178.25 192.85C178.508 192.772 178.762 192.678 179.01 192.57L179.76 192.26C180.25 192.05 180.76 191.86 181.22 191.64L182.6 190.91C185.85 189.144 188.73 186.767 191.08 183.91L192 183L192.65 182.05L193.29 181.13C193.39 180.98 193.5 180.84 193.59 180.68L193.84 180.22C194.18 179.61 194.51 179.03 194.84 178.47C195.17 177.91 195.35 177.34 195.58 176.82L195.92 176.05C196.03 175.81 196.124 175.563 196.2 175.31C196.35 174.83 196.49 174.38 196.63 173.96C196.77 173.54 196.9 173.15 196.99 172.79C197.08 172.43 197.14 172.1 197.2 171.79C197.33 171.2 197.43 170.79 197.49 170.45C197.55 170.11 197.6 169.99 197.6 169.99C197.6 169.99 197.6 170.15 197.52 170.45C197.44 170.75 197.37 171.21 197.25 171.8C197.2 172.1 197.13 172.43 197.06 172.8C196.99 173.17 196.83 173.55 196.71 173.97C196.59 174.39 196.43 174.85 196.28 175.34C196.212 175.591 196.122 175.835 196.01 176.07L195.68 176.85C195.45 177.37 195.24 177.95 194.95 178.51L193.95 180.28L193.7 180.74C193.61 180.9 193.5 181.04 193.4 181.19L192.77 182.11C192.55 182.43 192.34 182.75 192.11 183.11C191.88 183.47 191.6 183.73 191.34 184.04C188.986 186.901 186.099 189.278 182.84 191.04L181.46 191.78C180.98 192 180.46 192.19 179.98 192.4L179.23 192.71C178.981 192.827 178.724 192.924 178.46 193L176.87 193.49L176.06 193.73L175.22 193.9L173.51 194.24C172.94 194.34 172.35 194.37 171.75 194.44L170.86 194.53C170.71 194.53 170.56 194.53 170.41 194.53H170C168.768 194.571 167.535 194.527 166.31 194.4C165.69 194.33 165.05 194.29 164.43 194.19L162.54 193.8C162.23 193.73 161.91 193.68 161.54 193.59L160.61 193.3C159.99 193.1 159.35 192.92 158.73 192.69C157.472 192.208 156.25 191.64 155.07 190.99L154.17 190.49L153.72 190.24L153.3 189.95L151.58 188.77C151.02 188.35 150.5 187.88 149.96 187.43C149.678 187.21 149.408 186.977 149.15 186.73L148.41 185.97C147.39 184.946 146.441 183.853 145.57 182.7L144.39 181L144.09 180.54L143.82 180.06L143.3 179.06L142.78 178.06L142.34 177.06L141.91 176.06L141.7 175.54L141.53 175C141.31 174.28 141.09 173.55 140.86 172.82L140.41 170.58C139.918 167.505 139.891 164.373 140.33 161.29C140.836 158.221 141.808 155.247 143.21 152.47L144.31 150.47L145.6 148.6L145.92 148.13L146.29 147.7L147.01 146.84L147.73 145.99L148.53 145.21L149.32 144.43L149.72 144.04L150.15 143.7C150.716 143.227 151.286 142.767 151.86 142.32C153.034 141.481 154.263 140.723 155.54 140.05L156.48 139.55C156.8 139.38 157.13 139.27 157.48 139.13C158.13 138.87 158.77 138.58 159.43 138.34L161.43 137.74L161.92 137.58L162.43 137.48L163.43 137.28C164.75 137.016 166.086 136.839 167.43 136.75C168.1 136.75 168.76 136.75 169.43 136.75H170.43C170.76 136.75 171.08 136.81 171.43 136.84L173.34 137.04C173.97 137.13 174.58 137.28 175.2 137.4C176.409 137.648 177.598 137.983 178.76 138.4L179.19 138.53L179.61 138.71L180.43 139.06C180.97 139.3 181.53 139.51 182.05 139.78L183.57 140.62L184.32 141.03L185.02 141.51L186.39 142.51C186.623 142.654 186.841 142.821 187.04 143.01L187.67 143.53C188.07 143.89 188.49 144.22 188.88 144.53L189.98 145.65C192.559 148.324 194.596 151.472 195.98 154.92C197.04 157.511 197.698 160.25 197.93 163.04C197.93 163.33 197.99 163.61 198.01 163.88C198.034 164.143 198.034 164.407 198.01 164.67C198.01 165.18 198.01 165.67 198.01 166.09C198.01 166.51 198.01 166.95 198.01 167.32C198.01 167.69 197.93 168.03 197.9 168.32C197.83 168.91 197.78 169.37 197.74 169.69C197.7 170.01 197.59 170 197.59 170Z" fill="#263238"/>
<path d="M161.42 159.28H165.47C165.467 158.819 165.557 158.362 165.734 157.936C165.911 157.511 166.172 157.125 166.502 156.802C166.831 156.479 167.222 156.226 167.651 156.057C168.08 155.889 168.539 155.808 169 155.82C169.68 155.797 170.35 155.985 170.918 156.36C171.486 156.734 171.923 157.276 172.17 157.91C172.383 158.441 172.468 159.015 172.418 159.585C172.368 160.155 172.183 160.705 171.88 161.19C171.19 162.32 169.69 163.35 166.96 162.87V172H170.96V166.66C172.604 166.178 174.045 165.17 175.06 163.789C176.076 162.409 176.609 160.733 176.58 159.02C176.58 153.1 171.27 151.73 169 151.73C167.26 151.72 161.34 152.14 161.42 159.28Z" fill="#5E77FF"/>
<path d="M171.01 173.87H166.95V177.66H171.01V173.87Z" fill="#5E77FF"/>
<path d="M281.67 426.48C281.58 426.6 267.67 416.27 250.67 403.42C233.67 390.57 219.9 380.06 220 380C220.1 379.94 234 390.2 251 403.06C268 415.92 281.75 426.37 281.67 426.48Z" fill="#263238"/>
<path d="M213.67 427.68C213.58 427.57 227.45 416.79 244.67 403.61C261.89 390.43 275.86 379.83 275.95 379.95C276.04 380.07 262.14 390.84 245 404C227.86 417.16 213.76 427.79 213.67 427.68Z" fill="#263238"/>
<path d="M223.9 368.12L221.44 381.41H225.09L228.85 368.12H223.9Z" fill="#263238"/>
<path d="M217.57 377.52C214.35 393.71 201.84 454.15 198.69 469.41C198.597 469.826 198.597 470.258 198.691 470.674C198.785 471.091 198.97 471.481 199.233 471.817C199.496 472.153 199.831 472.426 200.212 472.617C200.594 472.807 201.013 472.911 201.44 472.92C202.064 472.916 202.669 472.705 203.16 472.319C203.651 471.934 203.999 471.396 204.15 470.79L228.54 379.88C228.745 379.148 228.782 378.38 228.645 377.632C228.509 376.884 228.204 376.178 227.754 375.566C227.304 374.953 226.72 374.452 226.047 374.099C225.374 373.747 224.63 373.552 223.87 373.53H222.33C221.197 373.541 220.103 373.945 219.235 374.672C218.367 375.4 217.778 376.407 217.57 377.52V377.52Z" fill="#455A64"/>
<path d="M272.26 368.12L274.72 381.41H271.07L267.31 368.12H272.26Z" fill="#263238"/>
<path d="M298 351C290.91 337.83 282.46 297.62 278.74 284.79C278.64 284.43 278.53 284.08 278.42 283.74C277.013 279.63 274.348 276.066 270.804 273.554C267.259 271.041 263.015 269.707 258.67 269.74H237.24C232.895 269.708 228.649 271.042 225.103 273.555C221.557 276.067 218.891 279.63 217.48 283.74C217.37 284.08 217.26 284.43 217.16 284.79C213.44 297.62 205 337.79 197.9 351C197.9 351 188.44 356.57 191.15 361.9C193.75 367.03 218.04 370.67 247.95 369.71C277.85 370.71 302.14 367.03 304.75 361.9C307.45 356.57 298 351 298 351Z" fill="#E0E0E0"/>
<path d="M298 351C298.824 351.466 299.61 351.998 300.35 352.59C301.27 353.283 302.124 354.059 302.9 354.91C304.026 356.04 304.833 357.448 305.24 358.99C305.413 359.939 305.295 360.919 304.9 361.8C304.386 362.735 303.597 363.489 302.64 363.96C301.647 364.522 300.602 364.988 299.52 365.35C298.362 365.769 297.184 366.13 295.99 366.43C290.352 367.772 284.618 368.674 278.84 369.13C272.4 369.73 265.29 370.04 257.62 370.05C255.71 370.05 253.75 370.05 251.77 370.05C249.79 370.05 247.77 369.91 245.77 370.05C241.67 370.16 237.43 370.18 233.08 370.05C223.906 369.96 214.752 369.198 205.69 367.77C203.294 367.369 200.921 366.841 198.58 366.19C197.363 365.868 196.167 365.471 195 365C193.815 364.542 192.711 363.898 191.73 363.09C191.236 362.638 190.873 362.061 190.68 361.42C190.63 361.27 190.56 361.11 190.52 360.95L190.46 360.46L190.4 359.97C190.4 359.8 190.4 359.64 190.45 359.47C190.628 358.172 191.145 356.944 191.95 355.91C193.566 353.879 195.534 352.155 197.76 350.82L197.67 350.92C200.099 345.826 202.106 340.542 203.67 335.12C205.36 329.63 206.91 324.01 208.4 318.3C209.96 312.3 211.4 306.4 212.87 300.56C213.59 297.64 214.31 294.74 215.03 291.86C215.77 288.99 216.45 286.14 217.38 283.34C218.349 280.601 219.884 278.096 221.886 275.991C223.889 273.885 226.313 272.225 229 271.12C231.604 270.058 234.388 269.504 237.2 269.49H257.14C258.425 269.465 259.711 269.515 260.99 269.64C263.507 269.918 265.954 270.639 268.22 271.77C270.408 272.873 272.387 274.349 274.07 276.13C275.715 277.841 277.045 279.828 278 282L278.62 283.62C278.79 284.17 278.96 284.71 279.11 285.26C279.4 286.35 279.71 287.42 279.98 288.49C281.09 292.77 282.09 296.9 283.06 300.83C286.88 316.57 290.19 329.25 292.97 337.83C294.32 342.15 295.6 345.42 296.5 347.63C296.95 348.73 297.38 349.52 297.63 350.08C297.88 350.64 298.01 350.93 298.01 350.93C298.01 350.93 297.41 349.84 296.41 347.67C295.41 345.5 294.16 342.2 292.77 337.89C289.94 329.28 286.56 316.6 282.7 300.89C281.7 296.96 280.7 292.84 279.59 288.57C279.32 287.5 279.01 286.43 278.71 285.34C278.57 284.79 278.39 284.26 278.23 283.72C278.07 283.18 277.82 282.72 277.62 282.14C276.698 280.011 275.408 278.062 273.81 276.38C270.422 272.833 265.88 270.61 261 270.11C259.738 269.983 258.468 269.936 257.2 269.97H245.35C240.04 270.14 234.35 269.3 229.22 271.58C226.598 272.654 224.232 274.268 222.275 276.317C220.318 278.365 218.814 280.802 217.86 283.47C216.95 286.21 216.27 289.09 215.53 291.95C214.79 294.81 214.09 297.72 213.37 300.64C211.93 306.49 210.46 312.41 208.9 318.4C207.41 324.11 205.9 329.74 204.16 335.24C202.603 340.69 200.596 346.002 198.16 351.12V351.18H198.09C195.923 352.48 194.007 354.156 192.43 356.13C191.676 357.089 191.189 358.232 191.02 359.44C191.02 359.59 191.02 359.74 191.02 359.88L191.07 360.32L191.12 360.76C191.12 360.9 191.22 361.04 191.26 361.18C191.429 361.741 191.747 362.245 192.18 362.64C193.116 363.41 194.169 364.025 195.3 364.46C196.424 364.929 197.576 365.327 198.75 365.65C201.074 366.301 203.43 366.829 205.81 367.23C214.804 368.67 223.892 369.456 233 369.58C237.353 369.673 241.58 369.673 245.68 369.58C247.68 369.47 249.75 369.58 251.74 369.58C253.73 369.58 255.67 369.64 257.58 369.64C265.24 369.64 272.34 369.35 278.77 368.78C284.536 368.345 290.259 367.466 295.89 366.15C297.12 365.84 298.3 365.5 299.4 365.15C300.47 364.79 301.505 364.332 302.49 363.78C303.403 363.347 304.166 362.65 304.68 361.78C305.06 360.938 305.178 360 305.02 359.09C304.625 357.584 303.847 356.205 302.76 355.09C301.993 354.238 301.153 353.455 300.25 352.75C299.53 352.17 298.95 351.75 298.55 351.5L298 351Z" fill="#263238"/>
<path d="M278.32 377.52C281.55 393.71 294.05 454.15 297.21 469.41C297.303 469.827 297.303 470.26 297.208 470.677C297.114 471.094 296.928 471.485 296.664 471.821C296.399 472.157 296.063 472.43 295.681 472.62C295.298 472.81 294.877 472.913 294.45 472.92C293.827 472.913 293.223 472.7 292.733 472.315C292.243 471.93 291.894 471.394 291.74 470.79L267.35 379.88C267.144 379.148 267.108 378.378 267.245 377.63C267.382 376.881 267.687 376.174 268.139 375.562C268.59 374.949 269.175 374.448 269.849 374.096C270.524 373.744 271.269 373.55 272.03 373.53H273.57C274.701 373.541 275.794 373.945 276.66 374.673C277.527 375.401 278.113 376.407 278.32 377.52Z" fill="#455A64"/>
<path d="M293.6 358.27L293.37 358.33L292.7 358.45L290.11 358.85C287.86 359.19 284.59 359.62 280.55 360.08C272.46 361 261.24 361.89 248.81 362.08C236.38 362.27 225.13 361.75 217.02 361.08C212.96 360.76 209.68 360.44 207.42 360.17L204.82 359.86L204.15 359.76C204.071 359.757 203.993 359.741 203.92 359.71H204.15H204.83L207.44 359.93C209.71 360.14 212.99 360.4 217.05 360.68C225.16 361.23 236.39 361.68 248.8 361.5C261.21 361.32 272.42 360.5 280.51 359.62C284.51 359.21 287.83 358.84 290.08 358.56L292.69 358.25L293.36 358.19C293.445 358.2 293.526 358.227 293.6 358.27V358.27Z" fill="#263238"/>
<g opacity="0.3">
<path opacity="0.3" d="M287.26 353.65C286.48 351.73 283.37 351.25 280.82 351.13C256.918 349.971 232.961 350.895 209.22 353.89C208.541 353.921 207.878 354.106 207.28 354.43C206.75 354.78 206.52 355.43 206.98 355.88L206.87 357.07C230.47 362.26 255.54 361.18 279.87 358.62C281.702 358.54 283.504 358.13 285.19 357.41C286.71 356.61 287.82 355.06 287.26 353.65Z" fill="black"/>
</g>
<path d="M216.52 301.18C216.52 301.18 203.59 312.79 200.9 325.86C196.9 345.08 207.25 360.08 207.25 360.08C227.17 361.14 244.79 362.25 278.79 360.08L279.37 310.18L216.52 301.18Z" fill="#263238"/>
<path d="M248.35 275.45C248.19 274.9 243.59 258.78 243.59 258.78L262.59 248.18L268 269.32L248.35 275.45Z" fill="#5E77FF"/>
<path d="M298.39 236.15C296.45 231.8 293.28 229.05 288.29 227.31L273.14 223H237.88C237.88 223 221.64 223.61 215.81 231.89L219 280.26C219 280.26 219.88 288.79 210.64 307.45C210.64 307.45 217.64 316.45 228.97 316.45C240.3 316.45 278.97 311.54 278.97 311.54L282.83 290.38L294.3 264.85C296.711 259.4 298.509 253.698 299.66 247.85C300.402 243.91 299.96 239.839 298.39 236.15V236.15Z" fill="#5E77FF"/>
<path d="M252.32 289.38C252.241 289.198 252.174 289.011 252.12 288.82C251.99 288.41 251.83 287.82 251.61 287.16C251.17 285.68 250.54 283.56 249.76 280.91C248.19 275.49 245.98 267.86 243.36 258.84L243.31 258.66L243.47 258.57L262.47 247.95L262.77 247.79L262.85 248.11C263 248.69 263.16 249.31 263.31 249.93C265.04 256.77 266.69 263.3 268.19 269.26H267.74C272.08 259.83 275.74 251.76 278.43 246.02L281.53 239.37L282.38 237.61C282.467 237.402 282.57 237.201 282.69 237.01C282.626 237.226 282.546 237.436 282.45 237.64L281.68 239.43L278.68 246.14L268.16 269.46L267.87 270.1L267.7 269.42C266.19 263.47 264.53 256.93 262.79 250.1C262.63 249.48 262.47 248.86 262.33 248.28L262.71 248.45L243.7 259L243.82 258.73C246.36 267.73 248.5 275.42 250.03 280.85C250.76 283.52 251.34 285.65 251.76 287.14C251.94 287.85 252.09 288.4 252.19 288.82C252.249 289.003 252.293 289.19 252.32 289.38V289.38Z" fill="#263238"/>
<path d="M217.65 229.79C215.428 231.678 213.649 234.032 212.439 236.685C211.229 239.338 210.619 242.224 210.65 245.14C210.88 254.94 221.78 304.95 229.28 309.14C237.13 313.55 240.96 312.38 245.43 312.38C249.9 312.38 282.81 309.54 282.81 309.54L282.69 288.38L246.24 289.55L233.34 243.41L217.65 229.79Z" fill="#5E77FF"/>
<path d="M213.27 262C213.27 262 213.33 262.18 213.42 262.52C213.51 262.86 213.65 263.4 213.82 264.05C214.16 265.42 214.66 267.41 215.3 269.95C216.61 275.06 218.47 282.48 221.07 291.56C221.73 293.83 222.45 296.19 223.28 298.63C224.084 301.168 225.264 303.571 226.78 305.76C228.437 308.076 230.724 309.867 233.37 310.92C236.209 311.958 239.236 312.381 242.25 312.16C248.48 311.92 255.03 311.44 261.81 310.95L282.81 309.34L282.57 309.6V309C282.57 301.93 282.49 295 282.46 288.38L282.72 288.64L246.26 289.77H246.09V289.6C242.24 275.7 239.09 264.16 236.81 256.07C235.71 252.07 234.81 248.89 234.26 246.71C233.973 245.65 233.753 244.83 233.6 244.25C233.46 243.69 233.4 243.4 233.4 243.4C233.4 243.4 233.5 243.68 233.67 244.23C233.84 244.78 234.07 245.62 234.38 246.68C235.01 248.85 235.91 252 237.05 256.01C239.33 264.08 242.59 275.6 246.51 289.48L246.29 289.32L282.75 288.12H283V288.38C283 295.03 283.08 301.93 283.12 308.99V309.78H282.88L261.88 311.38C255.09 311.86 248.55 312.33 242.29 312.56C239.213 312.78 236.124 312.341 233.23 311.27C230.509 310.175 228.159 308.321 226.46 305.93C224.923 303.706 223.733 301.261 222.93 298.68C222.11 296.23 221.39 293.85 220.75 291.58C218.19 282.48 216.39 275.05 215.14 269.92C214.54 267.36 214.07 265.37 213.74 264C213.6 263.34 213.48 262.82 213.4 262.45C213.32 262.08 213.27 262 213.27 262Z" fill="#263238"/>
<g opacity="0.3">
<path opacity="0.3" d="M232.21 310.86C230.03 309.887 228.194 308.281 226.94 306.25C222.88 300.25 220.64 291.44 219.23 285.14L218.73 284.49C219.224 290.679 220.436 296.79 222.34 302.7C223.43 305.79 224.81 308.95 227.34 311.01C229.757 312.809 232.708 313.746 235.72 313.67C238.706 313.589 241.675 313.177 244.57 312.44C242.08 312.4 236.1 312.59 232.21 310.86Z" fill="black"/>
</g>
<g opacity="0.3">
<path opacity="0.3" d="M235.33 250.47L248.71 286.88L280.24 288.48L246.26 289.57L235.33 250.47Z" fill="black"/>
</g>
<path d="M313.17 399.9L316.52 424.22C316.52 424.22 342.36 428.98 343.42 433.42L296.5 441.61L289.73 403.93L313.17 399.9Z" fill="#5E77FF"/>
<path d="M301.66 424.72C301.23 424.936 300.892 425.299 300.709 425.744C300.525 426.188 300.508 426.684 300.66 427.14C300.859 427.576 301.219 427.918 301.664 428.095C302.109 428.272 302.606 428.27 303.05 428.09C303.512 427.872 303.873 427.485 304.059 427.009C304.245 426.533 304.242 426.004 304.05 425.53C303.795 425.096 303.381 424.778 302.895 424.644C302.41 424.51 301.892 424.569 301.45 424.81" fill="#E0E0E0"/>
<path d="M296.64 442.6L296 439L341.17 431.41C341.17 431.41 343.42 431.96 343.44 433.47L296.64 442.6Z" fill="#E0E0E0"/>
<path d="M317.24 423.85C317.24 424.08 316.14 424.38 315.15 425.32C314.16 426.26 313.71 427.32 313.49 427.26C313.27 427.2 313.37 425.83 314.6 424.72C315.83 423.61 317.25 423.63 317.24 423.85Z" fill="#263238"/>
<path d="M322.52 425C322.61 425.21 321.68 425.77 321.07 426.88C320.46 427.99 320.42 429.05 320.19 429.08C319.96 429.11 319.59 427.83 320.37 426.48C321.15 425.13 322.47 424.81 322.52 425Z" fill="#263238"/>
<path d="M326.34 430.43C326.14 430.51 325.62 429.43 325.99 428.07C326.36 426.71 327.34 426.02 327.47 426.2C327.6 426.38 327.06 427.2 326.77 428.28C326.48 429.36 326.56 430.37 326.34 430.43Z" fill="#263238"/>
<path d="M315.86 418.39C315.8 418.62 314.69 418.49 313.42 418.8C312.15 419.11 311.2 419.7 311.04 419.52C310.88 419.34 311.72 418.36 313.23 418.01C314.74 417.66 315.94 418.19 315.86 418.39Z" fill="#263238"/>
<path d="M282.42 424L285.92 449.41L306.55 471C306.862 471.335 307.102 471.731 307.255 472.162C307.407 472.594 307.47 473.052 307.438 473.509C307.406 473.966 307.28 474.411 307.069 474.817C306.858 475.223 306.566 475.582 306.21 475.87V475.87C305.797 476.208 305.309 476.441 304.786 476.549C304.264 476.657 303.723 476.637 303.21 476.49C296.57 474.63 265.92 463.3 265.92 463.3C264.73 458.15 260.54 434.06 260.54 434.06L282.42 424Z" fill="#5E77FF"/>
<path d="M265.17 460.18L306.17 475.9C305.32 476.62 304.17 477.45 303.1 477.15L266.61 464C266.439 463.94 266.286 463.839 266.166 463.704C266.045 463.569 265.961 463.406 265.92 463.23L265.17 460.18Z" fill="#E0E0E0"/>
<path d="M272.33 454.37C272.825 454.437 273.276 454.686 273.597 455.069C273.917 455.452 274.082 455.941 274.06 456.44C274.009 456.929 273.774 457.38 273.403 457.701C273.031 458.023 272.551 458.19 272.06 458.17C271.536 458.103 271.056 457.844 270.712 457.443C270.368 457.042 270.186 456.528 270.2 456C270.304 455.487 270.605 455.035 271.039 454.741C271.473 454.447 272.005 454.336 272.52 454.43" fill="white"/>
<path d="M288.65 462.58C288.85 462.58 289.12 460.78 290.75 459.4C292.38 458.02 294.2 457.94 294.19 457.73C294.18 457.52 293.73 457.51 292.97 457.6C291.974 457.757 291.043 458.193 290.284 458.856C289.525 459.52 288.969 460.384 288.68 461.35C288.49 462.1 288.56 462.58 288.65 462.58Z" fill="#263238"/>
<path d="M293.92 466.75C294.12 466.81 294.54 465.38 295.8 464.16C297.06 462.94 298.46 462.5 298.41 462.3C298.36 462.1 296.71 462.23 295.3 463.65C293.89 465.07 293.72 466.76 293.92 466.75Z" fill="#263238"/>
<path d="M282.44 458.62C282.62 458.73 283.82 456.78 286.09 455.25C288.36 453.72 290.59 453.25 290.55 453.08C290.51 452.91 288.1 453 285.68 454.66C283.26 456.32 282.26 458.56 282.44 458.62Z" fill="#263238"/>
<path d="M280.54 211.49C279.95 208.65 280.54 205.71 281.04 202.85C281.54 199.99 281.79 196.92 280.58 194.28C279.06 190.96 275.58 189.04 273.36 186.12C271.14 183.2 270.44 179.44 269.57 175.88C268.7 172.32 267.47 168.59 264.64 166.25C261.07 163.25 253.04 163.94 249.72 167.19C252.43 187.81 250.89 209.37 258.48 228.72C268.621 227.526 278.233 223.545 286.25 217.22C283.35 217.09 281.13 214.33 280.54 211.49Z" fill="#263238"/>
<path d="M241.33 230.2L228.05 182.08C227.82 180.99 228.008 179.854 228.576 178.896C229.145 177.939 230.053 177.23 231.12 176.91L253.21 166.66C260.49 164.47 267.21 172.66 269.04 180.05C271.13 188.23 273.35 198.31 273.54 204.67C273.92 217.47 264.69 220.86 264.69 220.86L266.47 234.38L262.6 247.92L250.75 254.42L241.33 230.2Z" fill="#FFBE9D"/>
<path d="M265.94 190.06C266.024 190.475 265.942 190.905 265.712 191.26C265.482 191.615 265.122 191.867 264.71 191.96C264.511 192.014 264.303 192.028 264.099 192.001C263.894 191.973 263.698 191.906 263.52 191.801C263.342 191.697 263.187 191.558 263.063 191.393C262.939 191.228 262.85 191.04 262.8 190.84C262.716 190.425 262.798 189.995 263.028 189.64C263.258 189.285 263.618 189.033 264.03 188.94C264.229 188.885 264.437 188.87 264.642 188.896C264.847 188.923 265.044 188.99 265.223 189.095C265.401 189.199 265.556 189.339 265.679 189.505C265.803 189.67 265.891 189.859 265.94 190.06Z" fill="#263238"/>
<path d="M267.52 185.14C267.36 185.39 265.99 184.72 264.27 185.05C262.55 185.38 261.46 186.47 261.27 186.3C261.08 186.13 261.27 185.81 261.76 185.3C262.405 184.646 263.236 184.206 264.14 184.04C265.033 183.868 265.957 183.984 266.78 184.37C267.35 184.69 267.6 185 267.52 185.14Z" fill="#263238"/>
<path d="M250.3 193.19C250.381 193.604 250.298 194.034 250.068 194.388C249.839 194.743 249.481 194.994 249.07 195.09C248.87 195.144 248.662 195.157 248.457 195.129C248.252 195.102 248.055 195.033 247.877 194.928C247.699 194.822 247.544 194.682 247.42 194.516C247.297 194.35 247.209 194.161 247.16 193.96C247.076 193.545 247.158 193.115 247.388 192.76C247.618 192.405 247.977 192.153 248.39 192.06C248.59 192.006 248.798 191.993 249.003 192.021C249.208 192.048 249.405 192.117 249.583 192.222C249.761 192.328 249.916 192.468 250.039 192.634C250.162 192.8 250.251 192.989 250.3 193.19V193.19Z" fill="#263238"/>
<path d="M251.88 189.27C251.72 189.52 250.35 188.85 248.63 189.18C246.91 189.51 245.82 190.61 245.63 190.43C245.44 190.25 245.63 189.94 246.12 189.43C246.765 188.776 247.596 188.336 248.5 188.17C249.393 188.003 250.315 188.118 251.14 188.5C251.71 188.82 252 189.16 251.88 189.27Z" fill="#263238"/>
<path d="M259.7 200.81C260.551 200.366 261.455 200.03 262.39 199.81C262.82 199.68 263.22 199.51 263.23 199.2C263.184 198.742 262.999 198.309 262.7 197.96L260.77 194.87C258.07 190.46 256.03 186.8 256.21 186.69C256.39 186.58 258.72 190.07 261.42 194.48L263.29 197.6C263.664 198.078 263.859 198.673 263.84 199.28C263.807 199.445 263.737 199.6 263.634 199.734C263.532 199.867 263.4 199.975 263.25 200.05C263.016 200.16 262.772 200.244 262.52 200.3C261.606 200.592 260.658 200.764 259.7 200.81V200.81Z" fill="#263238"/>
<path d="M264.72 220.89C258.885 222.085 252.833 221.635 247.24 219.59C247.24 219.59 253.09 227.66 265.31 224.15L264.72 220.89Z" fill="#EB996E"/>
<path d="M250.49 182.07C250.41 182.57 248.66 182.67 246.69 183.29C244.72 183.91 243.2 184.77 242.85 184.4C242.7 184.23 242.9 183.73 243.47 183.16C244.23 182.429 245.157 181.893 246.17 181.6C247.178 181.28 248.247 181.205 249.29 181.38C250.08 181.54 250.52 181.83 250.49 182.07Z" fill="#E0E0E0"/>
<path d="M266.15 180C265.92 180.44 264.66 180.26 263.24 180.51C261.82 180.76 260.66 181.27 260.31 180.91C260.15 180.74 260.31 180.31 260.72 179.84C261.34 179.261 262.121 178.884 262.96 178.76C263.8 178.617 264.663 178.74 265.43 179.11C266 179.39 266.24 179.76 266.15 180Z" fill="#263238"/>
<path d="M256 165.92C253 160.81 248.27 161.08 243.21 161.31C238.15 161.54 231.11 164.9 227.46 168.41C224.61 171.15 221.46 174.55 219.66 178.07C217.86 181.59 217.5 185.07 216.66 188.76C215.4 194.53 216.49 200.51 217.12 206.38C217.912 213.756 217.969 221.193 217.29 228.58C217.05 231.23 216.87 234.38 220.49 235.3C221.164 235.458 221.858 235.522 222.55 235.49C227.92 235.33 233.29 236.33 239.2 235.79L242.81 235.2C247.39 234.47 249.22 230.97 248.43 227.03C246.05 215.12 237.43 196.32 236.19 192.64C236.18 192.64 230.05 166.42 256 165.92Z" fill="#263238"/>
<path d="M254.31 166.31C253.648 167.068 253.146 167.952 252.837 168.91C252.527 169.867 252.416 170.878 252.51 171.88C252.51 173.88 252.99 175.88 252.93 177.88C252.863 179.902 252.309 181.878 251.315 183.639C250.321 185.401 248.916 186.897 247.22 188C246.14 188.69 244.57 189.15 243.69 188.22C243.948 189.596 243.787 191.017 243.23 192.3C242.672 193.584 241.742 194.67 240.56 195.42C238.83 196.42 236.74 196.67 234.86 197.42C232.98 198.17 231.16 199.83 231.37 201.84L228.37 188.11L230.31 175.23L241.15 166.23L254.31 166.31Z" fill="#263238"/>
<path d="M236.73 192.55C237.097 192.211 237.431 191.84 237.73 191.44C238.47 190.301 238.926 189.001 239.06 187.65C239.227 185.651 239.19 183.641 238.95 181.65C238.655 179.182 238.548 176.695 238.63 174.21C238.728 171.698 239.495 169.257 240.85 167.14C241.464 166.227 242.252 165.446 243.17 164.84C243.97 164.319 244.858 163.946 245.79 163.74C247.137 163.406 248.557 163.511 249.84 164.04C250.039 164.125 250.233 164.221 250.42 164.33C250.557 164.406 250.687 164.493 250.81 164.59C250.918 164.663 251.018 164.747 251.11 164.84C250.696 164.563 250.258 164.325 249.8 164.13C248.524 163.635 247.124 163.555 245.8 163.9C243.835 164.377 242.123 165.582 241.01 167.27C239.681 169.37 238.936 171.786 238.85 174.27C238.768 176.741 238.868 179.214 239.15 181.67C239.388 183.689 239.408 185.727 239.21 187.75C239.056 189.125 238.565 190.441 237.78 191.58C237.484 191.958 237.13 192.285 236.73 192.55V192.55Z" fill="#455A64"/>
<path d="M226.05 192.54C226.668 192.377 227.261 192.128 227.81 191.8C229.249 190.79 230.386 189.407 231.1 187.8C231.629 186.717 232.051 185.585 232.36 184.42C232.674 183.077 232.791 181.696 232.71 180.32C232.65 178.86 232.47 177.32 232.39 175.73C232.345 174.914 232.345 174.096 232.39 173.28C232.452 172.435 232.592 171.598 232.81 170.78C233.691 167.654 235.71 164.972 238.47 163.26C240.727 161.886 243.369 161.279 246 161.53C247.754 161.679 249.457 162.193 251 163.04C251.57 163.343 252.106 163.705 252.6 164.12L252.49 164.06L252.18 163.85C252.015 163.735 251.845 163.628 251.67 163.53C251.46 163.41 251.23 163.26 250.95 163.12C249.396 162.315 247.695 161.832 245.95 161.7C243.36 161.479 240.767 162.093 238.55 163.45C235.841 165.137 233.861 167.777 233 170.85C232.786 171.648 232.649 172.465 232.59 173.29C232.54 174.11 232.59 174.92 232.59 175.71C232.67 177.3 232.85 178.84 232.9 180.31C232.982 181.708 232.854 183.11 232.52 184.47C232.204 185.648 231.769 186.791 231.22 187.88C230.483 189.502 229.309 190.887 227.83 191.88C227.417 192.125 226.973 192.314 226.51 192.44L226.15 192.52C226.09 192.54 226.05 192.55 226.05 192.54Z" fill="#455A64"/>
<path d="M243.69 188.19C243.692 188.23 243.692 188.27 243.69 188.31C243.69 188.4 243.69 188.52 243.69 188.66C243.69 188.8 243.69 189.01 243.69 189.23C243.69 189.45 243.69 189.72 243.69 190.02C243.627 190.739 243.466 191.445 243.21 192.12C242.874 193.032 242.345 193.861 241.66 194.55C239.76 196.283 237.326 197.316 234.76 197.48C233.241 197.64 231.709 197.64 230.19 197.48C228.537 197.336 226.912 196.966 225.36 196.38L225.05 196.25L225.37 196.15C227.155 195.601 228.842 194.774 230.37 193.7L230.45 193.65L230.56 193.86C226.94 195.054 223.022 194.98 219.45 193.65L219.21 193.56L219.44 193.45C221.638 192.382 223.631 190.937 225.33 189.18C226.647 187.785 227.557 186.056 227.96 184.18C228.177 182.953 228.177 181.697 227.96 180.47L227.73 179.47C227.73 179.37 227.73 179.28 227.67 179.22C227.61 179.16 227.67 179.13 227.67 179.13V179.21L227.74 179.46C227.81 179.69 227.89 180.01 228.01 180.46C228.362 182.025 228.314 183.654 227.87 185.196C227.426 186.737 226.601 188.142 225.47 189.28C223.774 191.071 221.768 192.541 219.55 193.62V193.42C223.089 194.729 226.968 194.796 230.55 193.61L231.33 193.35L230.66 193.82L230.58 193.88C229.052 194.962 227.365 195.798 225.58 196.36V196.14C227.112 196.72 228.718 197.087 230.35 197.23C231.849 197.395 233.361 197.395 234.86 197.23C237.388 197.084 239.791 196.086 241.68 194.4C242.356 193.73 242.884 192.926 243.23 192.04C243.486 191.374 243.658 190.679 243.74 189.97C243.74 189.68 243.74 189.42 243.79 189.19C243.8 189 243.8 188.81 243.79 188.62V188.27C243.758 188.241 243.725 188.215 243.69 188.19Z" fill="#455A64"/>
<path d="M224.12 230.2C224.05 230.2 223.68 222.99 223.28 214.09C222.88 205.19 222.62 197.97 222.69 197.97C222.76 197.97 223.13 205.18 223.52 214.08C223.91 222.98 224.19 230.19 224.12 230.2Z" fill="#455A64"/>
<path d="M231.47 230.79C231.429 230.697 231.399 230.6 231.38 230.5C231.32 230.28 231.25 230 231.17 229.65C230.98 228.92 230.74 227.85 230.46 226.53C229.88 223.88 229.17 220.2 228.53 216.12C227.89 212.04 227.44 208.32 227.18 205.63C227.04 204.28 226.95 203.19 226.89 202.44C226.89 202.08 226.89 201.79 226.89 201.57C226.881 201.467 226.881 201.363 226.89 201.26C226.905 201.359 226.905 201.461 226.89 201.56C226.89 201.78 226.95 202.07 227 202.43C227.08 203.21 227.21 204.29 227.36 205.61C227.66 208.3 228.14 212.01 228.78 216.09C229.42 220.17 230.1 223.84 230.63 226.49C230.9 227.8 231.11 228.86 231.27 229.63C231.34 229.98 231.39 230.27 231.43 230.49C231.455 230.588 231.468 230.689 231.47 230.79V230.79Z" fill="#455A64"/>
<path d="M261.63 203.61C261.353 203.389 261.033 203.229 260.69 203.14H260.75C260.31 202.907 259.81 202.815 259.316 202.876C258.823 202.937 258.36 203.148 257.99 203.48C257.565 203.89 257.297 204.434 257.23 205.02C257.113 205.629 257.215 206.26 257.52 206.8C257.861 207.284 258.371 207.623 258.95 207.75C259.527 207.87 260.123 207.87 260.7 207.75C261.257 207.681 261.777 207.431 262.18 207.04C262.466 206.689 262.624 206.252 262.63 205.8C262.643 205.383 262.56 204.968 262.386 204.588C262.213 204.208 261.954 203.873 261.63 203.61V203.61Z" fill="#EB996E"/>
<path d="M262.87 206.24C262.87 206.24 262.87 206.11 262.87 205.93C262.848 205.807 262.8 205.69 262.729 205.586C262.658 205.483 262.567 205.396 262.46 205.33C262.079 205.194 261.674 205.136 261.27 205.16C260.751 205.157 260.235 205.234 259.74 205.39C258.805 205.641 257.902 206.001 257.05 206.46C256.35 206.77 255.88 206.87 255.86 206.81C255.84 206.75 256.25 206.52 256.86 206.13C257.695 205.567 258.618 205.144 259.59 204.88C259.88 204.81 260.13 204.75 260.44 204.7C260.713 204.68 260.987 204.68 261.26 204.7C261.746 204.695 262.225 204.815 262.65 205.05C262.79 205.154 262.901 205.292 262.971 205.452C263.041 205.611 263.069 205.787 263.05 205.96C263 206.19 262.89 206.26 262.87 206.24Z" fill="#263238"/>
<path d="M282.72 291.44C282.72 291.44 294.97 289.64 297.99 290.82C301.01 292 316.27 299.37 317.99 302.56C319.71 305.75 323.69 311.45 324.2 314.3C324.71 317.15 325.2 325.7 325.2 325.7C324.189 325.665 323.228 325.249 322.512 324.534C321.796 323.82 321.377 322.861 321.34 321.85L320.17 325.7C320.17 325.7 316.98 326.54 316.48 324.36C316.48 324.36 314.63 326.71 313.8 321.36C313.374 319.046 313.094 316.709 312.96 314.36L310.44 310.67L311.78 315.6L311.11 323.08C311.11 323.08 308.43 323.08 308.26 320.73C308.066 318.981 307.674 317.26 307.09 315.6L303.73 310.33C303.73 310.33 295.25 305.91 293.35 303.79C292.483 302.961 291.769 301.986 291.24 300.91L282.87 303.7L282.72 291.44Z" fill="#FFBE9D"/>
<path d="M318.81 325.89C318.259 325.914 317.712 325.786 317.23 325.52C317.028 325.401 316.853 325.242 316.716 325.053C316.578 324.864 316.481 324.648 316.43 324.42C316.298 324.583 316.127 324.709 315.933 324.788C315.739 324.867 315.528 324.895 315.32 324.87C314.6 324.68 314.07 323.5 313.73 321.35C313.311 319.035 313.031 316.698 312.89 314.35L310.46 310.79L311.77 315.57L311.09 323.08C311.09 323.08 308.38 323.08 308.21 320.71C308.02 318.96 307.627 317.239 307.04 315.58L303.69 310.32C303.43 310.18 295.17 305.86 293.32 303.78C292.465 302.946 291.749 301.98 291.2 300.92L282.83 303.71L282.72 291.49C282.84 291.49 295.01 289.71 298 290.87C299.53 291.47 304.14 293.63 308.48 295.99C312.31 298.07 317.07 300.91 317.97 302.63C318.5 303.63 319.26 304.88 320.07 306.21C321.83 309.12 323.83 312.41 324.18 314.38C324.68 317.2 325.18 325.7 325.18 325.78C324.569 325.748 323.972 325.584 323.43 325.3C322.832 324.967 322.324 324.491 321.953 323.916C321.582 323.34 321.357 322.682 321.3 322L320.15 325.77C319.709 325.86 319.259 325.9 318.81 325.89V325.89ZM316.45 324.31V324.36C316.5 324.591 316.597 324.809 316.735 325.002C316.872 325.194 317.048 325.357 317.25 325.48C318.15 325.866 319.154 325.936 320.1 325.68L321.3 321.73V321.84C321.339 322.841 321.752 323.791 322.457 324.502C323.163 325.213 324.109 325.633 325.11 325.68C325.11 325.15 324.58 317.04 324.11 314.3C323.77 312.35 321.77 309.06 320 306.15C319.2 304.83 318.43 303.57 317.91 302.57C317.39 301.57 315.37 299.71 308.44 295.95C304.1 293.6 299.49 291.43 297.96 290.84C295.04 289.7 283.31 291.38 282.73 291.46L282.84 303.61L291.19 300.82C291.731 301.883 292.444 302.849 293.3 303.68C295.17 305.78 303.59 310.18 303.67 310.22L307.03 315.48C307.614 317.147 308.009 318.875 308.21 320.63C308.36 322.81 310.75 322.95 311.01 322.96L311.68 315.5L310.3 310.43L312.9 314.25C313.036 316.598 313.317 318.936 313.74 321.25C314.15 323.9 314.82 324.61 315.3 324.74H315.48C315.834 324.698 316.157 324.518 316.38 324.24L316.45 324.31Z" fill="#EB996E"/>
<path d="M291.11 290.42H287.62V302.37H291.11V290.42Z" fill="#263238"/>
<path d="M293.47 288.07H285.25V290.42H293.47V288.07Z" fill="#455A64"/>
<path d="M252.81 221.93C252.81 221.93 248.81 223.86 248.81 227.02C248.81 230.18 248.14 255.81 248.14 255.81L262.59 247.69L260.24 230.69L275.87 221.11C275.87 221.11 278.87 215.78 278.58 214.11C278.29 212.44 275.2 209.19 273.68 209.36C273.206 209.437 272.753 209.611 272.348 209.871C271.944 210.131 271.598 210.471 271.33 210.87L266.62 211.87C266.62 211.87 266.96 214.87 268.98 214.73L270.32 214.56L270.15 215.73L267.8 217.42L252.81 221.93Z" fill="#FFBE9D"/>
<path d="M252.81 221.93L253.06 221.83L253.81 221.58L256.73 220.65L267.73 217.24H267.68L270.03 215.55L269.96 215.67C270.01 215.31 270.06 214.9 270.12 214.49L270.32 214.7L269.02 214.87C268.771 214.898 268.519 214.876 268.279 214.806C268.039 214.735 267.815 214.618 267.62 214.46C266.922 213.759 266.491 212.836 266.4 211.85V211.67H266.59L271.3 210.67L271.16 210.77C271.559 210.166 272.12 209.687 272.78 209.39C273.125 209.231 273.5 209.149 273.88 209.15C274.262 209.181 274.632 209.301 274.96 209.5C276.229 210.268 277.306 211.314 278.11 212.56C278.326 212.874 278.51 213.209 278.66 213.56C278.828 213.94 278.883 214.36 278.82 214.77C278.69 215.54 278.468 216.292 278.16 217.01C277.559 218.465 276.868 219.881 276.09 221.25V221.3L260.46 230.89L260.58 230.63C260.66 231.17 260.74 231.75 260.82 232.33C261.55 237.61 262.26 242.74 262.93 247.64V247.81L262.78 247.9L248.23 256L247.87 256.2V255.8C248.16 245.18 248.4 236.3 248.56 230.03C248.56 229.25 248.61 228.51 248.63 227.81C248.609 227.137 248.679 226.464 248.84 225.81C249.209 224.827 249.83 223.958 250.64 223.29C251.28 222.71 252.009 222.237 252.8 221.89C252.8 221.89 252.8 221.89 252.66 221.99L252.25 222.24C251.708 222.578 251.199 222.967 250.73 223.4C249.961 224.066 249.379 224.921 249.04 225.88C248.898 226.503 248.841 227.142 248.87 227.78C248.87 228.48 248.87 229.22 248.87 230C248.75 236.27 248.58 245.16 248.37 255.78L248.03 255.57L262.47 247.42L262.34 247.68C261.66 242.78 260.95 237.68 260.21 232.37C260.13 231.79 260.05 231.21 259.98 230.67V230.5L260.12 230.41L275.76 220.84L275.67 220.93C276.439 219.584 277.124 218.191 277.72 216.76C278.017 216.085 278.228 215.377 278.35 214.65C278.391 213.955 278.17 213.27 277.73 212.73C276.956 211.549 275.932 210.552 274.73 209.81C274.464 209.646 274.162 209.546 273.85 209.52C273.54 209.515 273.232 209.58 272.95 209.71C272.372 209.975 271.875 210.39 271.51 210.91L271.46 210.99H271.38L266.67 211.99L266.83 211.77C266.899 212.656 267.274 213.49 267.89 214.13C268.044 214.255 268.222 214.348 268.413 214.403C268.603 214.458 268.803 214.474 269 214.45L270.3 214.3H270.54V214.53C270.48 214.95 270.42 215.35 270.37 215.71V215.79H270.31L267.95 217.46L256.95 220.73L253.95 221.58L253.19 221.79L252.81 221.93Z" fill="#EB996E"/>
<path d="M272.22 218.92C272.17 218.86 272.65 218.43 273.35 217.68C273.751 217.251 274.088 216.766 274.35 216.24C274.638 215.598 274.742 214.888 274.65 214.19C274.591 213.471 274.457 212.761 274.25 212.07C274.162 211.821 273.995 211.608 273.775 211.462C273.555 211.316 273.294 211.245 273.03 211.26C272.61 211.262 272.191 211.219 271.78 211.13C271.48 211.03 271.37 210.89 271.38 210.87C271.39 210.85 271.55 210.87 271.82 210.93C272.226 210.951 272.634 210.951 273.04 210.93C273.356 210.913 273.671 210.971 273.96 211.1C274.296 211.281 274.558 211.575 274.7 211.93C274.953 212.66 275.111 213.42 275.17 214.19C275.27 214.982 275.134 215.785 274.78 216.5C274.476 217.058 274.077 217.559 273.6 217.98C273.21 218.386 272.74 218.706 272.22 218.92V218.92Z" fill="#EB996E"/>
<path d="M272.52 335C266.45 327 253.58 326.3 246.98 333.91C244.702 336.501 243.475 339.85 243.54 343.3C243.54 359.1 252.06 401.79 253.93 414.3C255.93 427.7 261.49 450.63 261.49 450.63L288.78 446.76C288.78 446.76 278.54 366.54 277.27 357.14C276 347.74 274.05 339.67 274.05 339.67L272.52 335Z" fill="#263238"/>
<path d="M227.26 320.58C228.1 320.02 266.26 305.82 272.94 304.43C279.62 303.04 285.83 302.28 293.31 309.22C302.45 317.68 319.11 419.01 319.11 419.01C319.11 419.01 291 423.78 291 423.22C291 422.66 271.74 340.22 271.74 340.22L237.87 361.9L219.02 333.9L227.26 320.58Z" fill="#263238"/>
<path d="M279.84 372.6C279.806 372.52 279.782 372.436 279.77 372.35C279.77 372.15 279.69 371.9 279.63 371.59C279.52 370.88 279.36 369.91 279.16 368.67C278.77 366.09 278.23 362.43 277.55 357.92C276.87 353.41 276 348 274.5 342.11C273.804 339.039 272.623 336.098 271 333.4C269.221 330.529 266.588 328.287 263.47 326.99C260.299 325.814 256.811 325.814 253.64 326.99C250.664 328.016 248.044 329.872 246.09 332.34C244.469 334.7 243.563 337.478 243.48 340.34C243.31 343.01 243.42 345.54 243.48 347.82C243.76 352.38 244.41 356.06 244.6 358.62C244.71 359.9 244.76 360.9 244.78 361.57V362.34C244.791 362.43 244.791 362.52 244.78 362.61C244.769 362.52 244.769 362.43 244.78 362.34C244.78 362.13 244.78 361.88 244.72 361.57C244.67 360.9 244.59 359.9 244.45 358.63C244.2 356.08 243.45 352.43 243.16 347.83C243.009 345.323 242.986 342.81 243.09 340.3C243.168 337.364 244.091 334.513 245.75 332.09C247.748 329.533 250.443 327.609 253.51 326.55C256.797 325.33 260.413 325.33 263.7 326.55C266.919 327.894 269.636 330.213 271.47 333.18C273.11 335.912 274.302 338.89 275 342C276.45 347.91 277.29 353.32 277.95 357.86C278.61 362.4 279.04 366.05 279.39 368.64C279.55 369.88 279.68 370.86 279.77 371.57C279.77 371.88 279.83 372.14 279.85 372.34C279.858 372.427 279.855 372.514 279.84 372.6Z" fill="#455A64"/>
<path d="M256.27 309.91C256.133 310.002 255.986 310.076 255.83 310.13L254.51 310.67C253.37 311.14 251.7 311.78 249.63 312.57C245.51 314.14 239.77 316.24 233.45 318.57C227.13 320.9 221.45 323.04 217.31 324.68L212.46 326.63L211.14 327.16C210.988 327.231 210.826 327.282 210.66 327.31C210.66 327.31 210.8 327.21 211.09 327.06L212.38 326.45C213.5 325.92 215.13 325.19 217.17 324.34C221.24 322.61 226.93 320.4 233.27 318.08C239.61 315.76 245.35 313.72 249.51 312.23L254.44 310.49L255.79 310.04C255.942 309.97 256.104 309.926 256.27 309.91V309.91Z" fill="#455A64"/>
</svg>
